<?xml version="1.0" encoding="utf-8"?>
<!-- Generator: Adobe Illustrator 14.0.0, SVG Export Plug-In . SVG Version: 6.00 Build 43363)  -->
<!DOCTYPE svg PUBLIC "-//W3C//DTD SVG 1.1//EN" "http://www.w3.org/Graphics/SVG/1.1/DTD/svg11.dtd">
<svg version="1.1" id="Layer_1" xmlns="http://www.w3.org/2000/svg" xmlns:xlink="http://www.w3.org/1999/xlink" x="0px" y="0px"
	 width="1224px" height="792px" viewBox="0 0 1224 792" enable-background="new 0 0 1224 792" xml:space="preserve"><a xlink:href="https://carre3131.com" target="_blank">
<path fill="#FEC020" d="M534.73,320.539c0,1.565-1.043,2.835-2.329,2.835H48.328c-1.286,0-2.328-1.27-2.328-2.835v-34.705
	c0-1.565,1.042-2.834,2.328-2.834h484.074c1.286,0,2.329,1.269,2.329,2.834V320.539z"/>
<rect x="-21" y="-7" fill="#2C3D52" stroke="#000000" stroke-width="1.07" width="1259.333" height="148"/>
<g opacity="0.4">
	<rect x="22.333" y="470" fill="#3576BC" width="1178.667" height="291"/>
</g>
<rect x="-6.782" y="399.667" stroke="#808285" stroke-width="0.25" width="1239.375" height="38.76"/>
<text transform="matrix(1.5916 0 0 1 442.0024 425.0371)" fill="#FFFFFF" stroke="#FFFFFF" stroke-width="0.25" font-family="'MyriadPro-Regular'" font-size="16.9134">SITE WEB EN DÉVELOPPEMENT</text>
<text transform="matrix(1 0 0 1 768.3613 626.6572)"><tspan x="0" y="0" font-family="'MarkerFelt-Thin'" font-size="32.0744"> </tspan><tspan x="-255.274" y="38.489" font-family="'MarkerFelt-Thin'" font-size="32.0744">  boucles d’oreilles, colliers et objets éclatés  </tspan></text>
<text transform="matrix(1 0 0 1 540.0967 725.5537)"><tspan x="0" y="0" font-family="'MarkerFelt-Wide'" font-size="24.0558">Pour plus d’infos : </tspan><tspan x="181.186" y="0" font-family="'MarkerFelt-Thin'" font-size="24.0558">petitsbissonnette@gmail.com</tspan></text>
<g>
	<rect x="892.75" y="201.417" fill="#FFFFFF" width="140.37" height="140.372"/>
	<g>
		<g>
			<path fill="#010101" stroke="#FFFFFF" stroke-width="1.0769" d="M1063.682,248.944c-2.186,4.383-5.428,7.575-9.658,7.56
				c-9.689-0.035-11.094-14.671-11.062-23.868c0.03-9.266,1.526-23.892,11.217-23.857c4.231,0.017,7.117,3.094,9.049,7.561
				l-3.18,2.354c-1.161-2.928-3.045-5.513-5.883-5.525c-6.796-0.025-7.285,13.351-7.305,19.48
				c-0.021,6.062,0.382,19.44,7.177,19.464c2.897,0.014,5.188-2.976,6.59-5.827L1063.682,248.944z"/>
			<path fill="#010101" stroke="#FFFFFF" stroke-width="1.0769" d="M1076.061,241.607l-2.949,15.246l-3.668-1.27l9.557-46.086
				l4.455,0.017l9.265,46.156l-3.679,1.242l-2.845-15.271L1076.061,241.607z M1081.264,215.708h-0.11l-4.191,21.72l8.353,0.031
				L1081.264,215.708z"/>
			<path fill="#010101" stroke="#FFFFFF" stroke-width="1.0769" d="M1101.38,209.581l10.024,0.037c3.677,0.016,8.286,4,8.258,12.361
				c-0.019,5.714-1.874,11.141-6.444,13.075l7.62,19.955l-3.348,2.006l-8.281-21.627l-4.179-0.017l-0.066,20.692l-3.731-0.012
				L1101.38,209.581z M1105.041,231.191l5.46,0.022c3.229,0.012,5.24-2.978,5.265-9.247c0.017-6.062-2.312-8.162-6.098-8.177
				l-4.567-0.018L1105.041,231.191z"/>
			<path fill="#010101" stroke="#FFFFFF" stroke-width="1.0769" d="M1129.217,209.684l10.026,0.036
				c3.673,0.015,8.284,4.002,8.254,12.364c-0.017,5.713-1.872,11.141-6.444,13.075l7.619,19.952l-3.348,2.008l-8.283-21.629
				l-4.179-0.015l-0.064,20.693l-3.731-0.016L1129.217,209.684z M1132.875,231.294l5.461,0.021c3.229,0.012,5.244-2.977,5.262-9.244
				c0.021-6.062-2.307-8.164-6.098-8.176l-4.567-0.018L1132.875,231.294z"/>
			<path fill="#010101" stroke="#FFFFFF" stroke-width="1.0769" d="M1156.774,209.784l18.102,0.07l-0.013,4.179l-14.373-0.054
				l-0.051,15.328l11.867,0.044l-0.014,4.18l-11.867-0.045l-0.058,18.604l14.373,0.052l-0.015,4.179l-18.104-0.066L1156.774,209.784
				z M1171.052,202.104l-10.43,5.676l-1.435-3.073l9.876-7L1171.052,202.104z"/>
		</g>
		<path fill="#010101" stroke="#010101" stroke-width="2.2299" d="M1049.838,287.995l15.403-14.105l-21.65-0.057l0.02-4.18
			l28.82,0.077l-0.022,4.18l-14.465,13.128c8.101-0.119,15.013,4.153,14.98,11.885c-0.027,6.198-3.711,10.997-9.493,14.117
			c-4.293,2.359-9.361,3.737-19.33,3.714l0.019-4.391c8.568,0.02,12.237-0.803,14.963-2.192c4.607-2.218,8.367-6.244,8.389-11.123
			c0.026-5.918-5.81-7.82-11.572-7.836c-2.027-0.004-4.05,0.342-6.079,0.544L1049.838,287.995z"/>
		<path fill="#010101" stroke="#010101" stroke-width="2.2299" d="M1091.963,275.887l-4.428,1.577l-1.614-4.255l11.29-3.857
			l-0.194,43.194l5.028,0.03l-0.019,4.18l-15.601-0.077l0.019-4.179l5.354,0.035L1091.963,275.887z"/>
		<path fill="#010101" stroke="#010101" stroke-width="2.2299" d="M1122.604,287.995l15.406-14.102l-21.657-0.059l0.023-4.181
			l28.815,0.078l-0.015,4.179l-14.469,13.132c8.102-0.119,15.014,4.149,14.977,11.884c-0.025,6.198-3.707,10.995-9.492,14.114
			c-4.289,2.361-9.36,3.741-19.328,3.714l0.021-4.391c8.568,0.023,12.232-0.799,14.962-2.19c4.608-2.216,8.367-6.245,8.387-11.126
			c0.023-5.918-5.807-7.819-11.568-7.833c-2.029-0.003-4.053,0.338-6.081,0.546L1122.604,287.995z"/>
		<path fill="#010101" stroke="#010101" stroke-width="2.2299" d="M1164.45,275.884l-4.432,1.577l-1.61-4.251l11.289-3.861
			l-0.193,43.197l5.028,0.029l-0.018,4.18l-15.603-0.082l0.016-4.179l5.355,0.034L1164.45,275.884z"/>
	</g>
	<rect x="1042.961" y="260.798" fill="#010101" width="133.79" height="1.951"/>
	<rect x="1042.961" y="322.398" fill="#010101" width="133.79" height="1.951"/>
	<text transform="matrix(1.3187 0 0 1 1042.5332 339.1553)" fill="#010101" font-family="'MyriadPro-Bold'" font-size="10.9665">RBQ : 8303 - 6921-13</text>
	<g id="XMLID_3_">
		<g>
			<path fill="#010101" d="M1033.12,201.417c0,46.79,0,93.582,0,140.372c-9.26,0-18.525,0-27.788,0
				c-13.067-41.647-26.338-83.095-39.531-124.615c-24.727,4.4-48.301,9.951-73.051,14.324c0-9.741,0-19.481,0-29.221
				c-0.025-0.407-0.049-0.811,0.285-0.859C939.73,201.417,986.427,201.417,1033.12,201.417z"/>
			<path fill="#010101" d="M989.576,341.789c-32.275,0-64.55,0-96.826,0c0-31.606,0-63.215,0-94.823
				c20.004-4.366,41.254-8.107,60.731-12.318c2.24-0.483,2.237-0.066,3.151,2.292c1.009,2.604,2.337,7.743,3.152,10.313
				C969.578,278.158,980.549,311.715,989.576,341.789z M950.33,308.271c0-5.824,0-11.65,0-17.475c-5.824,0-11.651,0-17.475,0
				c-0.668,5.348-0.094,11.938-0.285,17.762C938.398,308.372,944.978,308.934,950.33,308.271z M950.33,285.067
				c0-5.824,0-11.65,0-17.474c-5.824,0-11.651,0-17.475,0c-0.668,5.348-0.094,11.938-0.285,17.761
				C938.398,285.167,944.978,285.729,950.33,285.067z M926.553,308.558c0-5.921,0-11.84,0-17.761c-5.823,0-11.65,0-17.474,0
				c-0.48,5.257-0.474,12.505,0,17.761C914.902,308.558,920.729,308.558,926.553,308.558z M926.553,285.354
				c0-5.921,0-11.84,0-17.761c-5.823,0-11.65,0-17.474,0c-0.48,5.257-0.474,12.504,0,17.761
				C914.902,285.354,920.729,285.354,926.553,285.354z"/>
		</g>
	</g>
</g>
<g>
	<g id="XMLID_4_">
		<g>
			<path fill="#8E53A1" d="M121.538,626.993c-7.772-49.89,29.786-97.174,83.896-105.597c54.101-8.433,104.269,25.175,112.041,75.072
				c7.772,49.89-29.786,97.174-83.896,105.605C179.478,710.498,129.311,676.891,121.538,626.993z"/>
		</g>
		<g>
			<path fill="none" stroke="#000000" stroke-width="2.6052" d="M121.538,626.993c7.772,49.897,57.939,83.505,112.041,75.081
				c54.109-8.432,91.667-55.716,83.896-105.605c-7.772-49.897-57.939-83.505-112.041-75.072
				C151.324,529.819,113.766,577.104,121.538,626.993z"/>
		</g>
	</g>
	<g id="XMLID_1_">
		<g>
			<g id="XMLID_2_">
				<g>
					<path fill="#FEC020" d="M287.754,592.862c1.602,3.021,2.512,6.174,2.048,8.81c-0.077,0.431-0.187,0.848-0.342,1.253
						c-0.15,0.399-0.347,0.786-0.578,1.147c-0.061,0.091-0.122,0.181-0.188,0.272c-0.097,0.141-0.202,0.27-0.313,0.399
						c-0.905,1.054-2.249,1.9-4.114,2.447c-5.828,0.158-11.168-8.719-14.304-16.002c-12.123,2.326-0.542,15.383-3.944,20.952
						c-1.667,0.454-2.795,0.198-4.218,0.333c1.606-3.133,0.334-7.849-3.171-10.441c-0.114-0.089-0.233-0.176-0.359-0.257
						c-0.244-0.162-0.499-0.315-0.759-0.457c-0.266-0.14-0.536-0.272-0.817-0.392c-0.281-0.118-0.573-0.223-0.875-0.313
						c-0.151-0.052-0.301-0.091-0.458-0.129c-0.307-0.083-0.629-0.146-0.956-0.195c-0.654-0.104-1.342-0.146-2.069-0.115
						c-0.34-1.578-0.411-2.955-0.319-4.214c0.571-0.227,1.083-0.469,1.557-0.724c0.098-0.053,0.19-0.105,0.281-0.163
						c0.212-0.12,0.412-0.245,0.598-0.374c0.543-0.366,1.007-0.758,1.407-1.164c3.482-3.53,1.726-8.103,1.753-7.969
						c-0.727-2.619-5.156-3.561-8.476-3.919c-0.106-0.64-0.199-1.275-0.306-1.922c0.231,0.001,0.456-0.002,0.678-0.024
						c0.005-0.007,0.005-0.007,0.006-0.001c0.415-0.027,0.812-0.089,1.179-0.178c0.006-0.001,0.006-0.001,0.006-0.001
						c0.55-0.123,1.059-0.309,1.528-0.544c0.864-0.435,1.597-1.03,2.198-1.743c0.09-0.102,0.167-0.207,0.245-0.313
						c0.72-0.956,1.225-2.091,1.512-3.299c0.059-0.266,0.116-0.537,0.156-0.806c0.669-4.331-1.333-9.195-5.847-9.755
						c11.413-23.98,49.16-0.407,26.922,19.101c0.727,0.293,1.509,0.733,2.303,1.298c0.162,0.112,0.323,0.225,0.48,0.351
						c2.253,1.699,4.622,4.3,6.457,7.172c0,0-0.006,0.001,0.001,0.006C287.045,591.604,287.411,592.229,287.754,592.862z
						 M263.088,576.523c5.46-2.032,10.258-6.068,8.327-11.801c-2.433-1.453-5.542-1.981-9.682-1.104
						C260.775,566.655,259.942,574.031,263.088,576.523z"/>
					<path fill="#010101" d="M289.802,601.672c0.464-2.636-0.446-5.789-2.048-8.81C289.361,595.876,290.272,599.035,289.802,601.672
						z"/>
					<path fill="#010101" d="M289.459,602.925c-0.15,0.399-0.34,0.785-0.578,1.147C289.113,603.711,289.309,603.324,289.459,602.925
						z"/>
					<path fill="#010101" d="M286.655,590.989c0.396,0.613,0.763,1.244,1.099,1.873
						C287.411,592.229,287.045,591.604,286.655,590.989z"/>
					<path fill="#FEC020" d="M288.38,604.744c0.111-0.13,0.216-0.259,0.313-0.399C288.595,604.479,288.49,604.608,288.38,604.744z"
						/>
					<path fill="#010101" d="M281.309,581.875c14.469,3.66,15.982,34.96-1.776,26.523c-4.875-2.316-7.605-8.162-10.944-13.382
						c-0.718,1.131-2.016,0.746-2.365,1.676c-0.699,1.453,3.514,15.607,1.966,16.749c-0.63,1.211-4.791,1.997-7.374,1.149
						c-2.86,1.827-7.081,3.629-11.618,4.805l-0.436-1.714c6.7-1.7,12.017-5.698,10.117-11.311c-2.229-6.6-11.812-3.624-18.091-2.434
						c-0.424-0.59-0.974-0.992-1.525-1.4c0.2-0.8,0.311-1.655,0.248-2.664c-0.219-0.441-0.639-0.607-1.084-0.738
						c-0.112-0.038-0.229-0.07-0.348-0.107c-0.597-0.183-1.154-0.427-1.212-1.362c4.869-1.134,16.105-2.09,18.728-8.17
						c-0.105-0.877-0.33-1.637-0.643-2.281c-0.101-0.21-0.213-0.404-0.335-0.586c-0.784-1.222-1.961-1.995-3.313-2.447
						c-1.268-0.434-2.687-0.588-4.08-0.583c0,0-0.005,0.007-0.006,0.001c-2.294,0.001-4.515,0.435-5.853,0.756
						c-0.253,0.058-0.476,0.117-0.661,0.171c-0.391,0.099-0.611,0.171-0.611,0.171s-0.375,0.164-0.926,0.356
						c-1.061,0.372-2.788,0.848-3.723,0.424c-0.269-0.12-0.469-0.32-0.572-0.623c0.77-3.646-1.788-5.574-2.162-7.535
						c8.024,2.183,23.722,2.856,20.358-10.387c-0.361-0.269-0.738-0.522-1.143-0.754c-0.672-0.383-1.404-0.706-2.19-0.972
						c-0.264-0.09-0.533-0.173-0.808-0.249c-0.707-0.202-1.444-0.362-2.207-0.481c-0.129-0.023-0.25-0.042-0.378-0.06
						c-1.368-0.193-2.825-0.272-4.341-0.256c-0.293,0.002-0.592,0.012-0.89,0.026c-2.885,0.105-5.946,0.558-8.971,1.248
						c-1.274,0.292-2.547,0.628-3.789,1.003c0,0,0.001,0.006-0.006,0.001c-0.831,0.248-1.652,0.514-2.453,0.788l0.001,0.007
						c1.069,3.128,1.124,6.608-0.495,8.698c-0.099,0.128-0.211,0.252-0.323,0.376c-0.489,0.514-1.102,0.915-1.849,1.176
						c-0.011,1.696-0.011,2.858,0.401,4.857l-1.397,0.943c-2.251-1.368-5.111-2.224-8.635-2.331
						c-0.704,0.06-1.393,0.092-2.049,0.088c-3.021-0.004-5.521-0.728-6.925-2.953c4.282-0.886,17.591,1.867,19.4-5.98
						c-2.473-14.907-25.457-10.301-32.203-2.516c0,0,0.001,0.006,0.007,0.005l-1.063,0.841c-0.72-0.932-1.45-1.806-2.182-2.611
						l1.233-0.548c9.456-8.332,26.238-10.572,34.766-2.142c4.421-1.639,15.6-4.05,22.202-2.803
						C259.603,537.385,303.568,558.006,281.309,581.875z M289.802,601.672c0.471-2.637-0.44-5.796-2.048-8.81
						c-0.335-0.629-0.703-1.26-1.099-1.873c-0.007-0.005-0.001-0.006-0.001-0.006c-1.829-2.873-4.197-5.474-6.457-7.172
						c-0.164-0.131-0.326-0.243-0.48-0.351c-0.794-0.564-1.576-1.005-2.303-1.298c22.238-19.508-15.509-43.081-26.922-19.101
						c4.514,0.56,6.516,5.424,5.847,9.755c-0.046,0.27-0.097,0.54-0.156,0.806c-0.287,1.208-0.792,2.343-1.512,3.299
						c-0.078,0.106-0.161,0.213-0.245,0.313c-0.602,0.713-1.334,1.309-2.198,1.743c-0.471,0.229-0.979,0.415-1.528,0.544
						c0,0,0,0-0.006,0.001c-0.375,0.084-0.765,0.145-1.179,0.178c-0.001-0.006-0.001-0.006-0.006,0.001
						c-0.217,0.009-0.447,0.02-0.679,0.019l0.001,0.006c0.101,0.647,0.2,1.282,0.306,1.922c3.319,0.358,7.749,1.3,8.476,3.919
						c-0.027-0.134,1.729,4.438-1.753,7.969c-0.399,0.406-0.863,0.798-1.407,1.164c-0.186,0.129-0.386,0.254-0.598,0.374
						c-0.091,0.058-0.183,0.11-0.281,0.163c-0.473,0.255-0.985,0.497-1.557,0.724c-0.092,1.259-0.021,2.636,0.319,4.214
						c0.727-0.031,1.415,0.012,2.069,0.115c0.327,0.05,0.649,0.112,0.956,0.195c0.156,0.038,0.306,0.077,0.458,0.129
						c0.302,0.091,0.594,0.201,0.875,0.313c0.281,0.119,0.552,0.252,0.817,0.392c0.26,0.142,0.515,0.295,0.759,0.457
						c0.12,0.088,0.239,0.169,0.359,0.257c3.505,2.593,4.778,7.309,3.171,10.441c1.423-0.135,2.551,0.121,4.218-0.333
						c3.402-5.569-8.179-18.626,3.944-20.952c3.135,7.283,8.476,16.16,14.304,16.002c1.865-0.547,3.208-1.394,4.114-2.447
						c0.11-0.136,0.215-0.265,0.313-0.399c0.067-0.092,0.128-0.182,0.188-0.272c0.238-0.362,0.428-0.748,0.578-1.147
						C289.615,602.52,289.725,602.103,289.802,601.672z M249.672,599.928c-0.132-0.849-0.265-1.703-0.398-2.558
						c-2.328,0.507-4.569,1.812-6.608,1.687c-0.006,0-0.006,0-0.012,0.001c0.004,0.188-0.085,0.458-0.172,0.74
						c-0.043,0.125-0.08,0.25-0.11,0.373c0.001,0.007-0.005,0.008-0.005,0.008c-0.118,0.443-0.164,0.875,0.157,1.088
						c0.048,0.03,0.103,0.06,0.163,0.081C244.617,599.983,248.62,601.079,249.672,599.928z M237.931,583.395
						c1.599-1.012,5.755-0.584,8.949-1.395c-1.772-2.825-6.692-0.333-9.454-1.81C237.351,580.915,237.059,582.937,237.931,583.395z
						 M220.979,580.934c-0.346-1.015-0.417-0.953-0.443-1.719c-0.519,0.844-3.179,0.221-4.352,0.678
						C217.588,579.674,220.006,580.586,220.979,580.934z"/>
					<path fill="#010101" d="M271.415,564.723c1.931,5.732-2.867,9.769-8.327,11.801c-3.146-2.492-2.312-9.868-1.354-12.905
						C265.874,562.741,268.982,563.27,271.415,564.723z M268.625,568.728c0.244-0.764,0.239-1.595-0.156-2.526
						c-0.042-0.106-0.097-0.217-0.152-0.333l-0.006,0.001c-1.59,0.147-3.133-0.649-4.524,0.373c0.163,2.213-0.686,6.554,1.148,7.368
						c0.886-1.133,2.013-2.165,2.823-3.267C268.141,569.828,268.452,569.298,268.625,568.728z"/>
					<path fill="#010101" d="M261.041,623.334c0.006-0.001,0.007,0.005,0.007,0.005s0.001,0.006-0.004,0.013
						c-0.112,0.124-1.231,0.805-2.782,1.81c-0.113,0.08-0.238,0.155-0.357,0.236c-1.985,1.304-4.541,3.077-6.593,4.916
						c-0.16,0.138-0.313,0.28-0.466,0.423c-0.906,0.848-1.685,1.707-2.233,2.523c5.913,3.28,10.801,8.489,15.049,14.124
						c4.247,5.628,7.854,11.681,11.194,16.668c1.517-1.624,3.524-2.824,4.424-4.953c-5.68-2.385-8.898-7.717-11.5-11.969
						c-0.793,0.448-1.927,0.513-2.604,0.018c-0.142-0.109-0.268-0.233-0.362-0.394c0.699-0.609,1.361-1.294,1.971-2.039
						c0.007,0.005,0.007,0.005,0.006-0.001c0.248-0.295,0.481-0.601,0.707-0.917c0.182-0.24,0.361-0.493,0.527-0.751
						c0.481-0.725,0.919-1.481,1.304-2.26c0.229-0.455,0.438-0.919,0.628-1.386c0.411-0.978,0.736-1.979,0.975-2.972
						c0.785-3.229,0.684-6.446-0.622-8.888c-0.056-0.116-0.123-0.225-0.19-0.339c-0.263-0.44-0.564-0.851-0.917-1.227
						c-0.264-0.29-0.55-0.559-0.862-0.798C266.676,623.868,264.283,623.153,261.041,623.334z M285.062,658.242
						c-3.221,0.357-10.85,9.455-10.85,9.455s-11.72-15.511-15.355-22.028c-3.23-5.805-14.734-11.665-14.734-11.665
						s12.332-16.796,22.856-13.49c8.573,3.26,8.483,18.167,2.498,23.857C273.105,650.883,278.153,655.673,285.062,658.242z"/>
					<path fill="#010101" d="M268.47,566.201c0.395,0.932,0.399,1.763,0.156,2.526C268.863,567.965,268.86,567.141,268.47,566.201z"
						/>
					<path fill="#FFFFFF" d="M268.317,565.868c0.056,0.116,0.11,0.227,0.152,0.333c-0.048-0.105-0.103-0.216-0.158-0.332
						L268.317,565.868z"/>
					<path fill="#010101" d="M267.758,570.344c0.382-0.516,0.687-1.051,0.867-1.616
						C268.452,569.298,268.141,569.828,267.758,570.344z"/>
					<path fill="#FEC020" d="M279.28,659.099c-0.9,2.129-2.907,3.329-4.424,4.953c-3.34-4.987-6.947-11.04-11.194-16.668l1.14-0.628
						c0.1,0.159,0.227,0.29,0.374,0.392c0.677,0.495,1.811,0.431,2.604-0.018C270.382,651.382,273.601,656.714,279.28,659.099z"/>
					<path fill="#FFFFFF" d="M270.312,627.541c1.306,2.441,1.407,5.658,0.622,8.888
						C271.719,633.199,271.611,629.983,270.312,627.541z"/>
					<path fill="#FEC020" d="M270.312,627.541c1.299,2.442,1.407,5.658,0.622,8.888c-0.245,0.994-0.577,1.996-0.975,2.972
						c-0.196,0.468-0.405,0.932-0.628,1.386c-0.391,0.779-0.83,1.536-1.304,2.26c-0.172,0.259-0.352,0.512-0.527,0.751
						c-0.232,0.317-0.466,0.617-0.707,0.917c0,0.006,0,0.006-0.006,0.001c-0.615,0.746-1.277,1.431-1.983,2.041l-1.14,0.628
						c-4.248-5.635-9.136-10.844-15.049-14.124c0.548-0.816,1.327-1.676,2.233-2.523c0.153-0.143,0.306-0.285,0.466-0.423
						c2.052-1.839,4.607-3.612,6.593-4.916c0.119-0.081,0.243-0.163,0.357-0.236c1.55-1.005,2.669-1.686,2.782-1.81
						c0.011-0.008,0.01-0.014,0.004-0.013c0,0-0.001-0.006-0.007-0.005c3.242-0.181,5.635,0.534,7.302,1.844
						c0.313,0.245,0.599,0.514,0.862,0.798c0.347,0.377,0.654,0.786,0.917,1.227C270.189,627.316,270.256,627.425,270.312,627.541z
						 M263.436,642.317c11.37-6.88,0.713-22.188-9.493-11.169C257.115,634.855,260.622,638.179,263.436,642.317z"/>
					<path fill="#FFFFFF" d="M269.205,625.976c0.353,0.376,0.654,0.786,0.917,1.227
						C269.859,626.762,269.552,626.353,269.205,625.976z"/>
					<path fill="#FFFFFF" d="M269.205,625.976c-0.263-0.284-0.549-0.553-0.862-0.798
						C268.655,625.417,268.941,625.686,269.205,625.976z"/>
					<path fill="#010101" d="M270.934,636.429c-0.239,0.993-0.564,1.994-0.975,2.972
						C270.357,638.425,270.689,637.423,270.934,636.429z"/>
					<path fill="#FFFFFF" d="M269.959,639.4c-0.19,0.467-0.399,0.931-0.628,1.386C269.554,640.332,269.763,639.868,269.959,639.4z"
						/>
					<path fill="#010101" d="M269.331,640.786c-0.385,0.778-0.823,1.535-1.304,2.26
						C268.501,642.322,268.939,641.565,269.331,640.786z"/>
					<path fill="#FFFFFF" d="M267.499,643.797c0.175-0.239,0.355-0.492,0.527-0.751C267.86,643.304,267.681,643.557,267.499,643.797
						z"/>
					<path fill="#010101" d="M267.499,643.797c-0.226,0.316-0.459,0.622-0.707,0.917
						C267.033,644.414,267.267,644.114,267.499,643.797z"/>
					<path fill="#FEC020" d="M253.065,566.932c3.364,13.243-12.334,12.569-20.358,10.387c0.375,1.961,2.932,3.889,2.162,7.535
						c0.104,0.303,0.303,0.503,0.572,0.623c0.936,0.43,2.656-0.045,3.723-0.424c0.551-0.192,0.926-0.356,0.926-0.356
						s0.22-0.072,0.611-0.171c0.186-0.054,0.409-0.107,0.661-0.171c1.332-0.32,3.553-0.748,5.853-0.756
						c0.001,0.006,0.006-0.001,0.006-0.001c1.395,0.001,2.813,0.155,4.08,0.583c1.352,0.452,2.529,1.226,3.313,2.447
						c0.122,0.182,0.234,0.376,0.335,0.586c0.313,0.645,0.538,1.404,0.643,2.281c-2.623,6.08-13.859,7.036-18.728,8.17
						c0.058,0.936,0.615,1.18,1.212,1.362c0.119,0.037,0.236,0.069,0.348,0.107c0.446,0.131,0.865,0.297,1.084,0.738
						c0.063,1.009-0.047,1.864-0.248,2.664c0.551,0.408,1.101,0.811,1.525,1.4c6.279-1.19,15.863-4.166,18.091,2.434
						c1.9,5.612-3.417,9.61-10.117,11.311c-9.496,2.417-21.78,0.218-20.282-8.544c6.325-5.312,6.263-24.209-4.856-26.797
						c-0.412-1.999-0.412-3.161-0.401-4.857c0.748-0.261,1.36-0.662,1.849-1.176c0.113-0.118,0.224-0.248,0.323-0.376
						c1.619-2.09,1.564-5.57,0.495-8.698c0.807-0.276,1.623-0.541,2.452-0.795c0.007,0.005,0.006-0.001,0.006-0.001
						c1.25-0.37,2.516-0.705,3.789-1.003c3.025-0.69,6.086-1.143,8.971-1.248c0.298-0.015,0.597-0.024,0.89-0.026
						c1.517-0.017,2.973,0.062,4.341,0.256c0.127,0.018,0.249,0.036,0.378,0.06c0.763,0.119,1.5,0.279,2.207,0.481
						c0.274,0.076,0.544,0.159,0.808,0.249c0.787,0.271,1.518,0.589,2.19,0.972C252.328,566.409,252.705,566.663,253.065,566.932z"
						/>
					<path fill="#FFFFFF" d="M254.427,577.235c0.084-0.101,0.167-0.207,0.245-0.313
						C254.595,577.028,254.518,577.134,254.427,577.235z"/>
					<path fill="#010101" d="M266.786,644.715c-0.609,0.745-1.271,1.43-1.971,2.039c0.094,0.16,0.22,0.284,0.362,0.394
						c-0.147-0.102-0.274-0.232-0.374-0.392C265.508,646.146,266.17,645.461,266.786,644.715z"/>
					<path fill="#010101" d="M253.943,631.148c10.206-11.019,20.863,4.289,9.493,11.169
						C260.622,638.179,257.115,634.855,253.943,631.148z M263.997,639.497c2.41-3.395,1.443-3.857,0.599-8.233
						c-0.699-3.643-7.325-2.109-7.484,0.197L263.997,639.497z"/>
					<path fill="#FEC020" d="M254.454,594.7c0.543-0.366,1.007-0.758,1.407-1.164C255.461,593.942,254.997,594.334,254.454,594.7z"
						/>
					<path fill="#FEC020" d="M253.575,595.237c0.098-0.053,0.19-0.105,0.281-0.163C253.765,595.132,253.672,595.185,253.575,595.237
						z"/>
					<path fill="#FFFFFF" d="M250.701,579.522c0.549-0.129,1.058-0.314,1.528-0.544C251.759,579.214,251.25,579.399,250.701,579.522
						z"/>
					<path fill="#FFFFFF" d="M249.516,579.701c0.414-0.033,0.805-0.094,1.179-0.178
						C250.327,579.612,249.931,579.674,249.516,579.701z"/>
					<path fill="#FFFFFF" d="M248.831,579.721c0.231,0.001,0.461-0.01,0.679-0.019c-0.222,0.022-0.446,0.025-0.678,0.024
						L248.831,579.721z"/>
					<path fill="#FEC020" d="M248.832,579.727c0.107,0.646,0.2,1.282,0.306,1.922C249.032,581.009,248.933,580.374,248.832,579.727z
						"/>
					<path fill="#010101" d="M248.763,617.682l0.436,1.714c-10.174,2.636-21.96,2.146-23.672-8.159
						c-2.892,3.151-15.698,7.673-19.9,2.775c-8.347,5.296-14.041-4.646-17.466-11.059c-3.438,0.167-6.446-0.239-9.589-0.469
						c-0.601,0.881-1.018,1.896-1.891,2.589c6.729,1.178,16.472,12.383,8.807,18.642c-23.542,19.204-50.507-11.568-46.684-34.385
						c0.226-9.663,1.898-20.64,10.278-24.559c7.441,1.335,10.563,8.569,13.912,15.538c2.923-11.178,16.798-29.583,26.817-13.031
						l-1.233,0.548c-2.484-2.738-5.006-4.641-7.338-5.121c-10.113-2.069-12.36,15.412-17.067,21.034
						c3.087,8.141,2.103,17.191,0.667,23.18c1.81-1.745,6.621-2.207,9.234-1.771c-0.145-1.771,2.724-2.662,1.816-5.197
						c4.38-0.938,8.775,1.428,14.163,0.413c4.042,14.75,18.967,17.364,13.9-3.479c-1.659-6.794-7.139-18.613-13.193-26.448
						l1.063-0.841c5.878,7.35,11.386,15.213,14.307,26.618c0.27,0.208,0.584,0.34,0.935,0.423c0.357,0.089,0.744,0.122,1.151,0.127
						c1.134,0.018,2.421-0.189,3.554-0.185c0.182,0.003,0.363,0.006,0.535,0.023c1.1,0.078,1.996,0.451,2.339,1.567
						c-6.561,4.079-7.717,7.773-8.035,13.719c19.49,8.398,29.179-18.539,16.696-27.873c-0.341-0.26-0.704-0.503-1.077-0.732
						l1.397-0.943c11.119,2.588,11.181,21.485,4.856,26.797C226.983,617.899,239.267,620.099,248.763,617.682z M207.058,600.009
						c0.795-0.073,1.561-0.174,1.493-0.889c-0.459-0.26-1.228-0.134-1.687-0.394C206.926,599.16,206.992,599.582,207.058,600.009z
						 M179.941,623.916c16.322-7.357-9.132-25.143-18.356-12.558c-0.334-0.823-1.1-1.079-1.574-1.718
						c6.904-14.675,2.582-31.663-9.841-42.095c-0.695,0.64-1.345,1.322-1.951,2.049c-0.2,0.243-0.399,0.487-0.591,0.742
						c-11.344,14.79-5.991,44.93,10.639,53.792c0.396,0.214,0.802,0.413,1.212,0.6C165.147,627.315,172.037,627.479,179.941,623.916
						z"/>
					<path fill="#FEC020" d="M250.847,630.736c0.153-0.143,0.306-0.285,0.466-0.423C251.152,630.451,251,630.594,250.847,630.736z"
						/>
					<path fill="#FFD682" d="M249.195,654.327c0.105,1.077,1.98,2.273,2.056,4.85c-1.277,1.956-4.083,2.887-7.609,3.33
						c0.628,1.703,2.351,1.766,2.634,3.985c-1.604,1.581-4.201-0.64-5.346,1.401c0.087,0.437,0.296,0.698,0.551,0.89
						c0.022,0.021,0.05,0.042,0.085,0.062c0.182,0.128,0.379,0.229,0.571,0.337c0.055,0.034,0.111,0.069,0.16,0.105
						c0.411,0.268,0.733,0.655,0.703,1.579c-0.208,2.158-1.572,3.553-4.073,4.154c-0.614-2.174-0.356-5.659-2.846-5.064
						c-0.284-1.144,0.733-1.396,0.233-2.675c6.877-1.084,3.443-9.765-2.021-8.601c-0.523,2.139,2.705,2.392,3.13,4.639
						c-2.215,2.559-5.47-1.198-5.818-2.994c-1.392,0.098-1.502,1.071-1.893,1.857c0.618,2.562,5.94,4.62,2.538,7.383
						c-0.392,0.092-0.687,0.044-0.917-0.107c-0.132-0.086-0.244-0.2-0.34-0.341c-0.048-0.067-0.091-0.143-0.135-0.223
						c-0.025-0.04-0.044-0.081-0.063-0.122c-0.038-0.081-0.075-0.163-0.114-0.251c-0.039-0.088-0.071-0.177-0.11-0.264
						c-0.085-0.225-0.17-0.449-0.271-0.658c-0.038-0.082-0.076-0.163-0.125-0.237c-0.063-0.121-0.135-0.223-0.218-0.315
						c-0.053-0.061-0.111-0.114-0.175-0.161c-0.063-0.046-0.133-0.092-0.207-0.124c-0.04-0.013-0.079-0.024-0.119-0.037
						c-3.803,3.199,2.074,7.491,5.819,4.883c3.892,6.358-3.988,10.237-7.491,5.931c-0.451-1.411-0.216-3.073-0.5-4.211
						c-0.028-0.102-0.057-0.203-0.089-0.292c-0.01-0.023-0.02-0.047-0.029-0.064c-0.073-0.188-0.167-0.35-0.295-0.492
						c-0.266-0.302-0.67-0.489-1.274-0.514c-1.925,0.606-1.905,2.779-4.191,1.553c-0.573-1.43,0.195-1.956-0.273-3.32
						c-0.269,0.16-0.541,0.303-0.809,0.426c-0.314,0.149-0.627,0.267-0.943,0.366c-0.036,0.012-0.065,0.022-0.095,0.033
						c-0.221,0.065-0.444,0.119-0.661,0.172c-0.012,0.002-0.024,0.004-0.037,0.006c-1.327,0.27-2.648,0.175-3.822-0.255
						c-0.386-0.146-0.756-0.32-1.109-0.534c-2.68-1.633-4.11-5.312-1.969-10.391c1.812-0.607,3.369-1.412,4.989-1.321
						c0.339-0.516,0.169-1.364-0.056-2.248c-0.045-0.249-0.168-0.398-0.335-0.467c-0.034-0.02-0.068-0.033-0.1-0.04
						c-0.026-0.009-0.059-0.017-0.09-0.018c-0.052-0.011-0.102-0.016-0.159-0.02c-0.669-0.039-1.632,0.361-2.047-0.056
						c-0.143-0.716-0.275-1.445-0.412-2.162c1.577-0.308,4.09,0.089,4.927-1.042l1.777-0.027c-1.79,3.08-1.142,5.83,5.528,4.341
						c-3.587,0.171-4.336-6.603-0.228-7.08c0.184,0.497,0.715,0.495,0.935,0.942c-0.056,1.685-0.949,2.499,0.036,4.121l0.001,0.006
						c0.51-0.017,0.915-0.104,1.23-0.248c0.135-0.059,0.248-0.132,0.354-0.211c0.102-0.072,0.195-0.155,0.274-0.249
						c1.025-1.167,0.393-3.456,1.636-4.469c0.243-0.045,0.492-0.096,0.729-0.139c1.218-0.165,0.543,2.484,1.782,2.292l1.404,0.625
						c-0.637,1.449-0.497,2.991,0.74,3.823c-0.025-2.165,2.264-4.247,4.073-4.154c-0.017,1.778-0.89,2.515,0.029,4.116
						c3.371-0.713,3.146-5.93,0.482-7.216l1.456-0.971c0.242,0.188,0.482,0.369,0.724,0.55c1.878,0.021,1.548-1.46,3.047-1.706
						c2.461,1.349,1.507,4.936,0.103,6.354c-0.024,0.404,0.104,0.584,0.278,0.701c0.078,0.057,0.165,0.093,0.252,0.136
						c0.094,0.041,0.181,0.078,0.259,0.135c0.174,0.116,0.297,0.304,0.278,0.7C246.792,654.508,249.08,654.751,249.195,654.327z
						 M245.967,660.932c0.594-1.367,0.243-3.258-0.549-4.766c-1.02-0.166-3.224-0.104-3.964,0.761l-0.006,0.001
						c-0.009,0.346,0.037,0.602,0.136,0.792c0.067,0.152,0.161,0.269,0.269,0.364c0.234,0.22,0.535,0.342,0.773,0.549
						c0.057,0.047,0.109,0.102,0.163,0.162c0.093,0.117,0.173,0.267,0.221,0.453c-0.492,0.296-0.799,0.568-0.967,0.813
						c-0.042,0.051-0.071,0.105-0.094,0.158c-0.014,0.027-0.023,0.054-0.031,0.08c-0.11,0.299,0.023,0.547,0.295,0.729
						C243.039,661.601,245.149,661.622,245.967,660.932z M224.633,666.9c-0.243-1.562,0.331-3.334-1.416-3.468
						c0.266,1.222-0.809,1.552-1.46,2.146c-4.051-3.007,1.503-3.116,1.563-5.539C213.528,654.576,216.824,674.201,224.633,666.9z
						 M213.358,667.207c-0.017-0.392-0.127-0.818-0.295-1.136c-0.232-0.445-0.562-0.675-0.88-0.27
						c-0.032,0.036-0.068,0.086-0.102,0.147c0.491,0.062,0.832,0.32,0.929,0.943c-0.364,0.075-0.483-0.213-0.786-0.228
						c0.172,0.661,0.462,1.159,1.004,1.307c0.074-0.131,0.116-0.3,0.125-0.482C213.363,667.4,213.367,667.306,213.358,667.207z"/>
					<path fill="#010101" d="M238.558,676.979c-0.329,6.315-12.576,7.768-13.647-0.756c-0.982-0.366-2.14,1.314-4.254,1.188
						c-0.982-0.885-2.144-1.479-2.214-3.7c-9.986,4.088-13.867-11.632-7.663-16.519c-1.885-2.507-1.12-5.665,2.147-6.398
						c-1.347-6.48,4.514-12.001,10.749-10.303c-1.409-8.84,13.808-11.699,13.572-1.496c2.727-0.475,6.951,0.192,6.177,4.814
						c0.474-0.411,0.604-1.057,0.379-1.94c0.87,0.489,1.488,2.206-0.31,2.305c2.959,0.214,6.724,3.748,5.139,7.259
						c6.701,1.075,6.394,12.983-0.225,12.401c1.563,3.17-0.239,5.445-2.943,6.191C246.869,674.865,239.863,678.738,238.558,676.979z
						 M251.251,659.177c-0.076-2.576-1.951-3.772-2.056-4.85c-0.115,0.424-2.404,0.181-3.612,0.693
						c0.02-0.396-0.104-0.584-0.278-0.7c-0.078-0.057-0.165-0.094-0.259-0.135c-0.088-0.043-0.175-0.079-0.252-0.136
						c-0.174-0.117-0.302-0.297-0.278-0.701c1.404-1.419,2.358-5.006-0.103-6.354c-1.5,0.246-1.169,1.727-3.047,1.706
						c-0.241-0.181-0.482-0.362-0.724-0.55c-0.058-0.047-0.114-0.089-0.165-0.137c-0.129-0.104-0.26-0.222-0.372-0.342
						c-0.241-0.219-0.453-0.461-0.642-0.751c-0.08-0.112-0.149-0.232-0.219-0.359c-0.08-0.15-0.149-0.314-0.22-0.491
						c-0.033-0.088-0.065-0.177-0.093-0.272c2.014-0.314,1.556-2.294,1.48-4.026l-0.001-0.006c-0.97-0.205-1.701-0.079-2.296,0.232
						c-0.532,0.277-0.947,0.704-1.323,1.182c-0.047,0.058-0.094,0.121-0.14,0.185c-0.047,0.058-0.094,0.121-0.134,0.184
						c-0.273,0.374-0.526,0.757-0.785,1.104c-0.046,0.063-0.087,0.12-0.135,0.178c-0.266,0.341-0.556,0.649-0.888,0.882
						c-0.107,0.073-0.228,0.142-0.35,0.198c-0.291,0.14-0.611,0.214-0.987,0.21c-0.278-0.663-1.146-0.459-1.066-1.665
						c0.346-0.348,0.649-0.689,0.903-1.028c5.364-7.063-7.793-12.741-6.592-1.256c0.802,1.295,2.828,0.772,2.874,3.197
						c-0.365,0.107-0.705,0.173-1.026,0.197c-1.39,0.11-2.431-0.471-3.386-1.147c-0.078-0.057-0.149-0.114-0.219-0.16
						c-0.071-0.058-0.142-0.108-0.212-0.16c-0.072-0.058-0.148-0.108-0.219-0.16c-1.443-1.075-2.821-2.055-5.104-0.736
						c-0.423,1.735,1.658,2.136,0.914,2.814c-0.531,0.083-0.868-0.114-1.124-0.431c-0.085-0.105-0.16-0.226-0.235-0.345
						c-0.291-0.499-0.51-1.103-0.938-1.404c-0.94,0.79,0.947,1.746,0.056,2.242c-0.683,0.231-0.799-0.352-1.207-0.519
						c-0.673,1.336-1.363,2.645-1.417,4.385c0.535,1.386,2.754,0.258,3.303,1.617c0.022,0.465-0.079,0.818-0.274,1.087
						c-0.837,1.131-3.35,0.734-4.927,1.042c0.136,0.717,0.269,1.446,0.412,2.162c0.415,0.417,1.378,0.017,2.047,0.056
						c0.057,0.004,0.107,0.009,0.159,0.02c0.032,0.001,0.064,0.009,0.09,0.018c0.033,0.013,0.066,0.021,0.1,0.04
						c0.167,0.068,0.29,0.218,0.335,0.467c0.225,0.884,0.395,1.732,0.056,2.248c-1.621-0.091-3.177,0.714-4.989,1.321
						c-2.141,5.079-0.711,8.758,1.969,10.391c0.353,0.214,0.724,0.394,1.109,0.534c1.173,0.43,2.496,0.53,3.822,0.255
						c0.012-0.002,0.024-0.004,0.037-0.006c0.224-0.048,0.441-0.1,0.661-0.172c0.03-0.011,0.059-0.021,0.095-0.033
						c0.317-0.094,0.635-0.218,0.943-0.366c0.269-0.123,0.54-0.266,0.809-0.426c0.469,1.364-0.299,1.891,0.273,3.32
						c2.286,1.227,2.266-0.946,4.191-1.553c0.604,0.024,1.008,0.212,1.274,0.514c0.128,0.143,0.223,0.31,0.295,0.492
						c0.009,0.018,0.019,0.041,0.029,0.064c0.033,0.095,0.061,0.19,0.089,0.292c0.283,1.138,0.048,2.8,0.5,4.211
						c3.503,4.307,11.383,0.428,7.491-5.931l0.806-1.651c2.49-0.595,2.232,2.891,2.846,5.064c2.501-0.602,3.865-1.996,4.073-4.154
						c0.031-0.924-0.292-1.312-0.703-1.579c-0.05-0.042-0.105-0.071-0.16-0.105c-0.192-0.108-0.389-0.209-0.571-0.337
						c-0.028-0.021-0.057-0.041-0.085-0.062c-0.255-0.191-0.464-0.453-0.551-0.89c1.145-2.041,3.742,0.18,5.346-1.401
						c-0.283-2.22-2.006-2.282-2.634-3.985C247.168,662.063,249.975,661.133,251.251,659.177z M236.587,641.38
						c0.933-0.396,2.462,0.636,2.896-0.558C239.028,640.512,236.755,640.572,236.587,641.38z"/>
					<path fill="#010101" d="M245.418,656.166c0.792,1.508,1.143,3.398,0.549,4.766c-0.818,0.69-2.928,0.669-3.755,0.098
						c-0.266-0.184-0.392-0.427-0.295-0.729c0.008-0.026,0.017-0.053,0.031-0.08c0.023-0.053,0.059-0.103,0.094-0.158
						c0.168-0.245,0.476-0.518,0.967-0.813c-0.048-0.187-0.127-0.336-0.221-0.453c-0.047-0.062-0.105-0.115-0.163-0.162
						c-0.239-0.207-0.539-0.329-0.773-0.549c-0.108-0.096-0.202-0.212-0.269-0.364c-0.093-0.198-0.145-0.446-0.13-0.793
						C242.194,656.062,244.398,656,245.418,656.166z"/>
					<path fill="#FFD682" d="M240.412,641.771c0.076,1.732,0.534,3.712-1.48,4.026c0.027,0.096,0.06,0.185,0.093,0.272
						c0.064,0.172,0.14,0.335,0.22,0.491c0.07,0.127,0.139,0.247,0.219,0.359c0.189,0.29,0.401,0.532,0.642,0.751
						c0.113,0.126,0.243,0.237,0.372,0.342c0.051,0.048,0.107,0.09,0.165,0.137l-1.456,0.971c-2.544-0.035-4.536,1.626-5.324,3.431
						l-1.404-0.625c0.049-0.008,0.097-0.021,0.151-0.036c-0.084-4.351-1.835-5.76-4.048-5.559l-0.095-0.768
						c0.321-0.024,0.661-0.09,1.026-0.197c-0.046-2.425-2.072-1.902-2.874-3.197c-1.202-11.485,11.956-5.808,6.592,1.256
						c-0.261,0.334-0.557,0.681-0.904,1.021l0.001,0.007c-0.081,1.206,0.788,1.002,1.066,1.665c0.376,0.004,0.696-0.07,0.987-0.21
						c0.122-0.057,0.243-0.125,0.35-0.198c0.333-0.232,0.623-0.541,0.888-0.882c0.047-0.058,0.094-0.121,0.135-0.178
						c0.259-0.347,0.511-0.729,0.785-1.104c0.04-0.062,0.086-0.126,0.134-0.184c0.046-0.063,0.094-0.121,0.14-0.185
						c0.377-0.471,0.792-0.898,1.323-1.182C238.711,641.693,239.442,641.566,240.412,641.771z"/>
					<path fill="#FFD682" d="M239.482,640.822c-0.433,1.193-1.963,0.162-2.896,0.558
						C236.755,640.572,239.028,640.512,239.482,640.822z"/>
					<path fill="#010101" d="M239.188,649.121c2.664,1.286,2.889,6.503-0.482,7.216c-0.918-1.602-0.045-2.338-0.029-4.116
						c-1.809-0.093-4.098,1.989-4.073,4.154c-1.236-0.832-1.376-2.374-0.74-3.823C234.652,650.747,236.644,649.086,239.188,649.121z
						"/>
					<path fill="#010101" d="M240.106,647.672c0.112,0.12,0.243,0.237,0.372,0.342C240.349,647.909,240.219,647.798,240.106,647.672
						z"/>
					<path fill="#010101" d="M242.042,660.062c-0.035,0.056-0.071,0.105-0.094,0.158C241.971,660.167,242,660.112,242.042,660.062z"
						/>
					<path fill="#010101" d="M241.917,660.3c-0.097,0.303,0.029,0.546,0.295,0.729C241.94,660.847,241.807,660.599,241.917,660.3z"
						/>
					<path fill="#010101" d="M239.245,646.562c0.07,0.127,0.139,0.247,0.219,0.359C239.384,646.809,239.315,646.688,239.245,646.562
						z"/>
					<path fill="#010101" d="M239.025,646.07c0.071,0.177,0.141,0.341,0.22,0.491C239.165,646.405,239.089,646.242,239.025,646.07z"
						/>
					<path fill="#010101" d="M242.138,669.182c0.055,0.034,0.11,0.063,0.16,0.105C242.249,669.251,242.193,669.216,242.138,669.182z
						"/>
					<path fill="#010101" d="M241.482,668.783c0.028,0.021,0.057,0.041,0.085,0.062
						C241.532,668.825,241.504,668.805,241.482,668.783z"/>
					<path fill="#FFD682" d="M236.652,643.364c-0.047,0.058-0.094,0.121-0.134,0.184
						C236.559,643.485,236.605,643.422,236.652,643.364z"/>
					<path fill="#FEC020" d="M223.304,584.017c12.483,9.334,2.794,36.271-16.696,27.873c0.318-5.945,1.474-9.64,8.035-13.719
						c-0.343-1.116-1.239-1.489-2.339-1.567c-0.171-0.018-0.354-0.026-0.535-0.023c-1.132-0.005-2.42,0.196-3.554,0.185
						c-0.408-0.011-0.795-0.045-1.151-0.127c-0.351-0.083-0.665-0.215-0.935-0.423c-2.921-11.405-8.429-19.269-14.307-26.618
						c-0.006,0.001-0.007-0.005-0.007-0.005c6.746-7.785,29.73-12.392,32.203,2.516c-1.81,7.848-15.118,5.095-19.4,5.98
						c1.404,2.226,3.905,2.949,6.925,2.953c0.657,0.004,1.346-0.028,2.05-0.081C217.701,581.082,220.912,582.227,223.304,584.017z"
						/>
					<path fill="#FEC020" d="M225.073,576.308c0.112-0.124,0.224-0.248,0.323-0.376C225.296,576.06,225.186,576.189,225.073,576.308
						z"/>
					<path fill="#010101" d="M234.293,658.681c5.464-1.164,8.899,7.517,2.021,8.601c0.5,1.279-0.518,1.531-0.233,2.675l-0.806,1.651
						c-3.745,2.608-9.622-1.684-5.819-4.883c0.04,0.013,0.079,0.024,0.119,0.037c0.074,0.032,0.143,0.072,0.207,0.124
						c0.063,0.047,0.122,0.101,0.175,0.161c0.083,0.093,0.155,0.194,0.218,0.315c0.043,0.075,0.086,0.155,0.125,0.237
						c0.101,0.209,0.186,0.434,0.271,0.658c0.033,0.088,0.071,0.176,0.11,0.264c0.033,0.089,0.07,0.171,0.114,0.251
						c0.019,0.041,0.038,0.082,0.063,0.122c0.038,0.081,0.086,0.155,0.135,0.223c0.097,0.141,0.208,0.255,0.34,0.341
						c0.23,0.151,0.525,0.199,0.917,0.107c3.402-2.763-1.92-4.821-2.538-7.383c0.39-0.786,0.501-1.76,1.893-1.857
						c0.349,1.796,3.604,5.553,5.818,2.994C236.999,661.072,233.77,660.819,234.293,658.681z"/>
					<path fill="#010101" d="M232.307,644.447c0.347-0.341,0.643-0.688,0.904-1.021c-0.253,0.339-0.557,0.681-0.903,1.028
						L232.307,644.447z"/>
					<path fill="#010101" d="M228.562,646.332c2.213-0.201,3.964,1.208,4.048,5.559c-0.054,0.015-0.102,0.028-0.151,0.036
						c-1.239,0.192-0.564-2.457-1.782-2.292c-0.237,0.043-0.486,0.094-0.729,0.139c-1.243,1.013-0.611,3.302-1.636,4.469
						c-0.086,0.088-0.172,0.177-0.274,0.249c-0.106,0.079-0.22,0.152-0.354,0.211c-0.321,0.145-0.72,0.231-1.231,0.242
						c-0.984-1.622-0.092-2.437-0.036-4.121c-0.22-0.447-0.751-0.445-0.935-0.942c-4.108,0.478-3.359,7.251,0.228,7.08
						c-6.67,1.489-7.317-1.261-5.528-4.341C221.842,649.748,225.607,646.592,228.562,646.332z"/>
					<path fill="#FFD682" d="M228.467,645.564l0.095,0.768c-2.955,0.26-6.72,3.416-8.38,6.288l-1.777,0.027
						c0.196-0.269,0.297-0.622,0.274-1.087c-0.549-1.359-2.769-0.231-3.303-1.617c0.054-1.74,0.744-3.049,1.417-4.385
						c0.408,0.167,0.523,0.75,1.207,0.519c0.892-0.496-0.996-1.452-0.056-2.242c0.428,0.302,0.647,0.905,0.938,1.404
						c0.069,0.126,0.149,0.239,0.235,0.345c0.255,0.316,0.593,0.514,1.124,0.431c0.745-0.679-1.337-1.079-0.914-2.814
						c2.283-1.318,3.661-0.339,5.104,0.736c0.071,0.052,0.142,0.109,0.219,0.16c0.07,0.052,0.141,0.103,0.212,0.16
						c0.077,0.051,0.148,0.108,0.219,0.16C226.037,645.094,227.078,645.675,228.467,645.564z"/>
					<path fill="#FFD682" d="M230.993,669.117c0.097,0.141,0.208,0.255,0.34,0.341C231.202,669.372,231.09,669.258,230.993,669.117z
						"/>
					<path fill="#FFD682" d="M230.858,668.895c0.043,0.08,0.086,0.155,0.135,0.223C230.945,669.05,230.896,668.976,230.858,668.895z
						"/>
					<path fill="#FFD682" d="M230.681,668.521c0.039,0.088,0.077,0.17,0.114,0.251C230.751,668.692,230.714,668.61,230.681,668.521z
						"/>
					<path fill="#FFD682" d="M230.571,668.258c0.039,0.087,0.071,0.176,0.11,0.264C230.643,668.434,230.604,668.346,230.571,668.258
						z"/>
					<path fill="#FFD682" d="M230.176,667.362c0.049,0.074,0.086,0.155,0.125,0.237
						C230.262,667.518,230.219,667.438,230.176,667.362z"/>
					<path fill="#010101" d="M228.039,654.491c0.102-0.072,0.188-0.161,0.274-0.249C228.233,654.336,228.14,654.419,228.039,654.491
						z"/>
					<path fill="#FFD682" d="M229.783,666.886c0.063,0.047,0.122,0.101,0.175,0.161
						C229.904,666.986,229.846,666.933,229.783,666.886z"/>
					<path fill="#010101" d="M226.453,654.944c0.511-0.011,0.91-0.098,1.231-0.242c-0.315,0.144-0.72,0.231-1.23,0.248
						L226.453,654.944z"/>
					<path fill="#FFD682" d="M227.196,673.035c0.032,0.089,0.061,0.19,0.089,0.292C227.257,673.226,227.229,673.13,227.196,673.035z
						"/>
					<path fill="#FFD682" d="M226.872,672.479c0.128,0.143,0.222,0.304,0.295,0.492C227.095,672.788,227,672.621,226.872,672.479z"
						/>
					<path fill="#010101" d="M223.217,663.433c1.747,0.134,1.172,1.905,1.416,3.468c-7.809,7.301-11.104-12.324-1.312-6.86
						c-0.06,2.423-5.614,2.532-1.563,5.539C222.409,664.984,223.483,664.654,223.217,663.433z"/>
					<path fill="#FFFFFF" d="M211.77,596.58c0.181-0.003,0.363,0.006,0.535,0.023C212.133,596.586,211.951,596.583,211.77,596.58z"
						/>
					<path fill="#FFFFFF" d="M208.216,596.765c1.133,0.012,2.421-0.189,3.554-0.185C210.637,596.575,209.35,596.782,208.216,596.765
						z"/>
					<path fill="#010101" d="M219.38,670.989c0.316-0.1,0.629-0.217,0.943-0.366C220.016,670.771,219.697,670.896,219.38,670.989z"
						/>
					<path fill="#010101" d="M218.625,671.194c0.217-0.053,0.44-0.106,0.661-0.172C219.065,671.095,218.849,671.146,218.625,671.194
						z"/>
					<path fill="#FFFFFF" d="M207.064,596.638c0.356,0.082,0.743,0.116,1.151,0.127C207.809,596.76,207.422,596.727,207.064,596.638
						z"/>
					<path fill="#FFD682" d="M216.186,655.944c0.032,0.007,0.066,0.021,0.1,0.04C216.252,655.965,216.219,655.957,216.186,655.944z"
						/>
					<path fill="#010101" d="M218.588,671.2c-1.326,0.275-2.648,0.175-3.822-0.255C215.939,671.375,217.261,671.47,218.588,671.2z"
						/>
					<path fill="#FFD682" d="M215.937,655.907c0.057,0.004,0.107,0.009,0.159,0.02C216.044,655.916,215.994,655.911,215.937,655.907
						z"/>
					<path fill="#FEC020" d="M203.952,596.886c5.067,20.843-9.858,18.229-13.9,3.479c-5.388,1.015-9.783-1.352-14.163-0.413
						c0.908,2.535-1.96,3.426-1.816,5.197c-2.613-0.437-7.424,0.025-9.234,1.771c1.437-5.988,2.421-15.039-0.667-23.18
						c4.707-5.622,6.954-23.104,17.067-21.034c2.332,0.48,4.854,2.383,7.338,5.121c0.732,0.806,1.462,1.68,2.182,2.611
						C196.812,578.272,202.293,590.092,203.952,596.886z M188.213,592.779c4.249-12.135-14.682-12.292-10.598-0.644
						C181.251,591.595,184.958,589.941,188.213,592.779z"/>
					<path fill="#010101" d="M213.657,670.411c0.353,0.214,0.723,0.388,1.109,0.534C214.381,670.805,214.01,670.625,213.657,670.411
						z"/>
					<path fill="#FFD682" d="M213.062,666.071c0.168,0.317,0.278,0.744,0.295,1.136
						C213.341,666.815,213.224,666.384,213.062,666.071z"/>
					<path fill="#010101" d="M213.062,666.071c0.161,0.312,0.278,0.744,0.295,1.136c0.003,0.1-0.001,0.194-0.006,0.282
						c-0.009,0.183-0.051,0.352-0.125,0.482c-0.542-0.147-0.832-0.646-1.004-1.307c0.303,0.015,0.422,0.303,0.786,0.228
						c-0.097-0.623-0.438-0.882-0.929-0.943c0.035-0.056,0.065-0.104,0.102-0.147C212.501,665.396,212.831,665.626,213.062,666.071z
						"/>
					<path fill="#FFD682" d="M213.358,667.207c0.009,0.099,0.005,0.193-0.006,0.282
						C213.357,667.401,213.361,667.307,213.358,667.207z"/>
					<path fill="#010101" d="M212.183,665.802c-0.037,0.044-0.067,0.092-0.102,0.147
						C212.115,665.888,212.151,665.838,212.183,665.802z"/>
					<path fill="#010101" d="M179.457,632.563c13.043-3.121,36.069,4.977,25.339,21.223c-3.963,3.537-10.155,4.245-15.347,3.061
						c-2.974,6.396-1.738,14.362-1.38,21.997c-5.29-1.727-10.042-4.981-16.229-4.367
						C179.236,662.607,186.947,648.377,179.457,632.563z M186.521,653.545c24.252,8.588,22.987-22.645-2.37-18.5
						c3.144,14.56-1.503,26.188-7.146,37.444c2.944-0.246,6.255,1.945,8.332,1.909c-1.089-2.337,0.68-10.884,1.511-18.147
						C187.842,655.965,185.288,653.737,186.521,653.545z"/>
					<path fill="#010101" d="M177.615,592.136c-4.084-11.648,14.847-11.491,10.598,0.644
						C184.958,589.941,181.251,591.595,177.615,592.136z M185.281,588.647c-0.152-1.902-2.28-1.996-1.196-3.422
						c-1.906,0.085-4.876,1.686-3.665,3.848C181.618,587.968,183.907,588.698,185.281,588.647z"/>
					<path fill="#010101" d="M196.335,641.737c0.061,0.028,0.116,0.063,0.173,0.104
						C196.451,641.801,196.397,641.771,196.335,641.737z"/>
					<path fill="#010101" d="M195.995,641.559c0.114,0.052,0.229,0.108,0.34,0.179C196.224,641.667,196.109,641.61,195.995,641.559z
						"/>
					<path fill="#FEC020" d="M184.151,635.045c25.356-4.145,26.622,27.088,2.37,18.5c-1.233,0.192,1.321,2.42,0.328,2.706
						c-0.832,7.264-2.601,15.811-1.511,18.147c-2.076,0.036-5.388-2.155-8.332-1.909
						C182.648,661.232,187.295,649.604,184.151,635.045z M189.343,651.917c15.135,0.712,13.117-15.492,0.956-14.328
						C189.457,642.171,189.39,647.039,189.343,651.917z"/>
					<path fill="#010101" d="M190.299,637.589c12.161-1.164,14.179,15.04-0.956,14.328
						C189.39,647.039,189.457,642.171,190.299,637.589z M198.183,643.963c-0.44-1.02-1.013-1.687-1.675-2.121
						c-0.057-0.041-0.112-0.076-0.173-0.104c-0.111-0.07-0.226-0.127-0.34-0.179c-1.002-0.456-2.158-0.488-3.357-0.402
						c0.614,2.699-1.071,5.77,0,7.828C194.224,648.894,197.529,647.19,198.183,643.963z"/>
					<path fill="#FEC020" d="M161.585,611.358c9.225-12.585,34.678,5.2,18.356,12.558c-7.904,3.563-14.794,3.399-20.462,0.812
						c-0.411-0.187-0.816-0.386-1.212-0.6c-16.63-8.862-21.982-39.002-10.639-53.792c0.191-0.255,0.391-0.499,0.591-0.742
						c0.606-0.727,1.256-1.409,1.951-2.049c12.422,10.432,16.745,27.42,9.841,42.095
						C160.485,610.279,161.25,610.535,161.585,611.358z"/>
					<path fill="#FFFFFF" d="M148.219,569.595c-0.2,0.243-0.399,0.487-0.591,0.742C147.82,570.082,148.02,569.838,148.219,569.595z"
						/>
				</g>
				<g>
				</g>
			</g>
		</g>
		<g>
		</g>
	</g>
	<path fill="none" d="M202.964,514.163c55.772-8.692,107.49,25.953,115.502,77.394c8.012,51.43-30.706,100.176-86.488,108.867
		c-55.772,8.684-107.489-25.961-115.501-77.4C108.465,571.592,147.183,522.848,202.964,514.163z"/>
	<text transform="matrix(-0.6664 -0.7456 0.7456 -0.6664 140.6113 671.2686)"><tspan x="0" y="0" font-family="'MarkerFelt-Wide'" font-size="29.7151"> </tspan><tspan x="7.017" y="-0.017" font-family="'MarkerFelt-Wide'" font-size="29.7151" rotate="4.362"> </tspan><tspan x="14.014" y="0.5" font-family="'MarkerFelt-Wide'" font-size="29.7151" rotate="8.804"> </tspan><tspan x="20.928" y="1.554" font-family="'MarkerFelt-Wide'" font-size="29.7151" rotate="13.302"> </tspan><tspan x="27.767" y="3.153" font-family="'MarkerFelt-Wide'" font-size="29.7151" rotate="17.872"> </tspan><tspan x="34.434" y="5.284" font-family="'MarkerFelt-Wide'" font-size="29.7151" rotate="22.458"> </tspan><tspan x="40.904" y="7.941" font-family="'MarkerFelt-Wide'" font-size="29.7151" rotate="27.043"> </tspan><tspan x="47.122" y="11.094" font-family="'MarkerFelt-Wide'" font-size="29.7151" rotate="31.584"> </tspan><tspan x="53.113" y="14.759" font-family="'MarkerFelt-Wide'" font-size="29.7151" rotate="36.13"> </tspan><tspan x="58.782" y="18.875" font-family="'MarkerFelt-Wide'" font-size="29.7151" rotate="40.71"> </tspan><tspan x="64.099" y="23.429" font-family="'MarkerFelt-Wide'" font-size="29.7151" rotate="45.302"> </tspan><tspan x="69.043" y="28.402" font-family="'MarkerFelt-Wide'" font-size="29.7151" rotate="49.886"> </tspan><tspan x="73.571" y="33.751" font-family="'MarkerFelt-Wide'" font-size="29.7151" rotate="54.426"> </tspan><tspan x="77.649" y="39.424" font-family="'MarkerFelt-Wide'" font-size="29.7151" rotate="58.892"> </tspan><tspan x="81.296" y="45.438" font-family="'MarkerFelt-Wide'" font-size="29.7151" rotate="63.312"> </tspan><tspan x="84.563" y="51.454" font-family="'MarkerFelt-Wide'" font-size="29.7151" rotate="69.603">L</tspan><tspan x="89.182" y="64.39" font-family="'MarkerFelt-Wide'" font-size="29.7151" rotate="75.431">’</tspan><tspan x="90.7" y="70.13" font-family="'MarkerFelt-Wide'" font-size="29.7151" rotate="79.146">i</tspan><tspan x="92.534" y="76.312" font-family="'MarkerFelt-Wide'" font-size="29.7151" rotate="87.423">m</tspan><tspan x="93.252" y="98.863" font-family="'MarkerFelt-Wide'" font-size="29.7151" rotate="97.571">a</tspan><tspan x="91.336" y="113.214" font-family="'MarkerFelt-Wide'" font-size="29.7151" rotate="104.964">g</tspan><tspan x="87.815" y="125.897" font-family="'MarkerFelt-Wide'" font-size="29.7151" rotate="110.213">i</tspan><tspan x="85.718" y="132.196" font-family="'MarkerFelt-Wide'" font-size="29.7151" rotate="115.7">n</tspan><tspan x="79.732" y="144.991" font-family="'MarkerFelt-Wide'" font-size="29.7151" rotate="123.788">a</tspan><tspan x="71.64" y="157.154" font-family="'MarkerFelt-Wide'" font-size="29.7151" rotate="129.638">t</tspan><tspan x="64.27" y="165.924" font-family="'MarkerFelt-Wide'" font-size="29.7151" rotate="134.376">i</tspan><tspan x="59.77" y="170.801" font-family="'MarkerFelt-Wide'" font-size="29.7151" rotate="139.764">o</tspan><tspan x="49.429" y="179.633" font-family="'MarkerFelt-Wide'" font-size="29.7151" rotate="147.219">n</tspan></text>
	<path fill="none" d="M214.756,523.252c61.913-5.072,115.903,37.098,120.577,94.2c4.674,57.093-41.729,107.494-103.652,112.566
		c-61.912,5.063-115.901-37.106-120.574-94.21C106.432,578.717,152.835,528.314,214.756,523.252z"/>
	<text transform="matrix(0.6824 0.7309 -0.7309 0.6824 135.0381 692.209)"><tspan x="0" y="0" font-family="'MarkerFelt-Wide'" font-size="29.7175"> </tspan><tspan x="8.555" y="-0.047" font-family="'MarkerFelt-Wide'" font-size="29.7175" rotate="-4.62"> </tspan><tspan x="17.483" y="-0.693" font-family="'MarkerFelt-Wide'" font-size="29.7175" rotate="-10.897">e</tspan><tspan x="32.562" y="-3.694" font-family="'MarkerFelt-Wide'" font-size="29.7175" rotate="-19.141">n</tspan><tspan x="47.94" y="-9.34" font-family="'MarkerFelt-Wide'" font-size="29.7175" rotate="-25.473"> </tspan><tspan x="56.76" y="-13.057" font-family="'MarkerFelt-Wide'" font-size="29.7175" rotate="-34.054">m</tspan><tspan x="77.883" y="-28.104" font-family="'MarkerFelt-Wide'" font-size="29.7175" rotate="-44.258">o</tspan><tspan x="89.482" y="-39.467" font-family="'MarkerFelt-Wide'" font-size="29.7175" rotate="-52.506">d</tspan><tspan x="100.063" y="-53.484" font-family="'MarkerFelt-Wide'" font-size="29.7175" rotate="-59.805">e</tspan><tspan x="107.28" y="-66.302" font-family="'MarkerFelt-Wide'" font-size="29.7175" rotate="-65.401"> </tspan><tspan x="111.155" y="-74.415" font-family="'MarkerFelt-Wide'" font-size="29.7175" rotate="-71.755">d</tspan><tspan x="116.48" y="-91.296" font-family="'MarkerFelt-Wide'" font-size="29.7175" rotate="-79.811">é</tspan><tspan x="119.01" y="-105.985" font-family="'MarkerFelt-Wide'" font-size="29.7175" rotate="-87.39">c</tspan><tspan x="119.606" y="-121.356" font-family="'MarkerFelt-Wide'" font-size="29.7175" rotate="-95.586">o</tspan><tspan x="117.867" y="-137.709" font-family="'MarkerFelt-Wide'" font-size="29.7175" rotate="-104.581">u</tspan><tspan x="113.364" y="-154.382" font-family="'MarkerFelt-Wide'" font-size="29.7175" rotate="-114.516">p</tspan><tspan x="105.556" y="-170.773" font-family="'MarkerFelt-Wide'" font-size="29.7175" rotate="-124.407">e</tspan></text>
</g>
<g>
	<g>
		<g>
			<g>
				<g>
				</g>
				<rect x="20.057" y="676.34" fill-rule="evenodd" clip-rule="evenodd" width="6.439" height="10.516"/>
				<rect x="20.057" y="695.2" fill-rule="evenodd" clip-rule="evenodd" width="6.439" height="10.517"/>
				<rect x="20.057" y="714" fill-rule="evenodd" clip-rule="evenodd" width="6.439" height="10.516"/>
			</g>
		</g>
		<g>
			<g>
				<g>
				</g>
				<rect x="20.057" y="619.686" fill-rule="evenodd" clip-rule="evenodd" width="6.439" height="10.516"/>
				<rect x="20.057" y="638.547" fill-rule="evenodd" clip-rule="evenodd" width="6.439" height="10.516"/>
				<rect x="20.057" y="657.346" fill-rule="evenodd" clip-rule="evenodd" width="6.439" height="10.516"/>
			</g>
		</g>
		<g>
			<g>
				<g>
				</g>
				<rect x="20.057" y="563.031" fill-rule="evenodd" clip-rule="evenodd" width="6.439" height="10.517"/>
				<rect x="20.057" y="581.893" fill-rule="evenodd" clip-rule="evenodd" width="6.439" height="10.516"/>
				<rect x="20.057" y="600.691" fill-rule="evenodd" clip-rule="evenodd" width="6.439" height="10.516"/>
			</g>
		</g>
		<g>
			<g>
				<g>
				</g>
				<rect x="20.057" y="506.378" fill-rule="evenodd" clip-rule="evenodd" width="6.439" height="10.516"/>
				<rect x="20.057" y="525.238" fill-rule="evenodd" clip-rule="evenodd" width="6.439" height="10.516"/>
				<rect x="20.057" y="544.037" fill-rule="evenodd" clip-rule="evenodd" width="6.439" height="10.517"/>
			</g>
		</g>
		<g>
			<g>
				<g>
				</g>
				<rect x="97.953" y="467.724" fill-rule="evenodd" clip-rule="evenodd" width="10.886" height="6.439"/>
				<rect x="78.429" y="467.724" fill-rule="evenodd" clip-rule="evenodd" width="10.886" height="6.439"/>
				<rect x="58.968" y="467.724" fill-rule="evenodd" clip-rule="evenodd" width="10.886" height="6.439"/>
			</g>
		</g>
		<g>
			<g>
				<g>
				</g>
				<rect x="156.599" y="467.724" fill-rule="evenodd" clip-rule="evenodd" width="10.886" height="6.439"/>
				<rect x="137.075" y="467.724" fill-rule="evenodd" clip-rule="evenodd" width="10.886" height="6.439"/>
				<rect x="117.615" y="467.724" fill-rule="evenodd" clip-rule="evenodd" width="10.886" height="6.439"/>
			</g>
		</g>
		<g>
			<g>
				<g>
				</g>
				<rect x="215.246" y="467.724" fill-rule="evenodd" clip-rule="evenodd" width="10.886" height="6.439"/>
				<rect x="195.722" y="467.724" fill-rule="evenodd" clip-rule="evenodd" width="10.886" height="6.439"/>
				<rect x="176.261" y="467.724" fill-rule="evenodd" clip-rule="evenodd" width="10.886" height="6.439"/>
			</g>
		</g>
		<g>
			<g>
				<g>
				</g>
				<rect x="273.892" y="467.724" fill-rule="evenodd" clip-rule="evenodd" width="10.886" height="6.439"/>
				<rect x="254.368" y="467.724" fill-rule="evenodd" clip-rule="evenodd" width="10.886" height="6.439"/>
				<rect x="234.908" y="467.724" fill-rule="evenodd" clip-rule="evenodd" width="10.886" height="6.439"/>
			</g>
		</g>
		<g>
			<g>
				<g>
				</g>
				<rect x="332.539" y="467.724" fill-rule="evenodd" clip-rule="evenodd" width="10.886" height="6.439"/>
				<rect x="313.015" y="467.724" fill-rule="evenodd" clip-rule="evenodd" width="10.886" height="6.439"/>
				<rect x="293.554" y="467.724" fill-rule="evenodd" clip-rule="evenodd" width="10.886" height="6.439"/>
			</g>
		</g>
		<g>
			<g>
				<g>
				</g>
				<rect x="391.185" y="467.724" fill-rule="evenodd" clip-rule="evenodd" width="10.886" height="6.439"/>
				<rect x="371.661" y="467.724" fill-rule="evenodd" clip-rule="evenodd" width="10.886" height="6.439"/>
				<rect x="352.201" y="467.724" fill-rule="evenodd" clip-rule="evenodd" width="10.886" height="6.439"/>
			</g>
		</g>
		<g>
			<g>
				<g>
				</g>
				<rect x="449.832" y="467.724" fill-rule="evenodd" clip-rule="evenodd" width="10.886" height="6.439"/>
				<rect x="430.308" y="467.724" fill-rule="evenodd" clip-rule="evenodd" width="10.886" height="6.439"/>
				<rect x="410.847" y="467.724" fill-rule="evenodd" clip-rule="evenodd" width="10.886" height="6.439"/>
			</g>
		</g>
		<g>
			<g>
				<g>
				</g>
				<rect x="508.478" y="467.724" fill-rule="evenodd" clip-rule="evenodd" width="10.886" height="6.439"/>
				<rect x="488.954" y="467.724" fill-rule="evenodd" clip-rule="evenodd" width="10.886" height="6.439"/>
				<rect x="469.494" y="467.724" fill-rule="evenodd" clip-rule="evenodd" width="10.886" height="6.439"/>
			</g>
		</g>
		<g>
			<g>
				<g>
				</g>
				<rect x="567.125" y="467.724" fill-rule="evenodd" clip-rule="evenodd" width="10.886" height="6.439"/>
				<rect x="547.601" y="467.724" fill-rule="evenodd" clip-rule="evenodd" width="10.886" height="6.439"/>
				<rect x="528.14" y="467.724" fill-rule="evenodd" clip-rule="evenodd" width="10.886" height="6.439"/>
			</g>
		</g>
		<g>
			<g>
				<g>
				</g>
				<rect x="625.771" y="467.724" fill-rule="evenodd" clip-rule="evenodd" width="10.885" height="6.439"/>
				<rect x="606.247" y="467.724" fill-rule="evenodd" clip-rule="evenodd" width="10.886" height="6.439"/>
				<rect x="586.787" y="467.724" fill-rule="evenodd" clip-rule="evenodd" width="10.886" height="6.439"/>
			</g>
		</g>
		<g>
			<g>
				<g>
				</g>
				<rect x="684.418" y="467.724" fill-rule="evenodd" clip-rule="evenodd" width="10.885" height="6.439"/>
				<rect x="664.894" y="467.724" fill-rule="evenodd" clip-rule="evenodd" width="10.886" height="6.439"/>
				<rect x="645.434" y="467.724" fill-rule="evenodd" clip-rule="evenodd" width="10.886" height="6.439"/>
			</g>
		</g>
		<g>
			<g>
				<g>
				</g>
				<rect x="743.064" y="467.724" fill-rule="evenodd" clip-rule="evenodd" width="10.885" height="6.439"/>
				<rect x="723.54" y="467.724" fill-rule="evenodd" clip-rule="evenodd" width="10.886" height="6.439"/>
				<rect x="704.08" y="467.724" fill-rule="evenodd" clip-rule="evenodd" width="10.886" height="6.439"/>
			</g>
		</g>
		<g>
			<g>
				<g>
				</g>
				<rect x="801.711" y="467.724" fill-rule="evenodd" clip-rule="evenodd" width="10.885" height="6.439"/>
				<rect x="782.187" y="467.724" fill-rule="evenodd" clip-rule="evenodd" width="10.886" height="6.439"/>
				<rect x="762.727" y="467.724" fill-rule="evenodd" clip-rule="evenodd" width="10.886" height="6.439"/>
			</g>
		</g>
		<g>
			<g>
				<g>
				</g>
				<rect x="860.357" y="467.724" fill-rule="evenodd" clip-rule="evenodd" width="10.885" height="6.439"/>
				<rect x="840.833" y="467.724" fill-rule="evenodd" clip-rule="evenodd" width="10.886" height="6.439"/>
				<rect x="821.373" y="467.724" fill-rule="evenodd" clip-rule="evenodd" width="10.886" height="6.439"/>
			</g>
		</g>
		<g>
			<g>
				<g>
				</g>
				<rect x="919.004" y="467.724" fill-rule="evenodd" clip-rule="evenodd" width="10.885" height="6.439"/>
				<rect x="899.479" y="467.724" fill-rule="evenodd" clip-rule="evenodd" width="10.886" height="6.439"/>
				<rect x="880.02" y="467.724" fill-rule="evenodd" clip-rule="evenodd" width="10.886" height="6.439"/>
			</g>
		</g>
		<g>
			<g>
				<g>
				</g>
				<rect x="977.65" y="467.724" fill-rule="evenodd" clip-rule="evenodd" width="10.885" height="6.439"/>
				<rect x="958.126" y="467.724" fill-rule="evenodd" clip-rule="evenodd" width="10.886" height="6.439"/>
				<rect x="938.666" y="467.724" fill-rule="evenodd" clip-rule="evenodd" width="10.886" height="6.439"/>
			</g>
		</g>
		<g>
			<g>
				<g>
				</g>
				<rect x="1036.297" y="467.724" fill-rule="evenodd" clip-rule="evenodd" width="10.885" height="6.439"/>
				<rect x="1016.772" y="467.724" fill-rule="evenodd" clip-rule="evenodd" width="10.886" height="6.439"/>
				<rect x="997.312" y="467.724" fill-rule="evenodd" clip-rule="evenodd" width="10.886" height="6.439"/>
			</g>
		</g>
		<g>
			<g>
				<g>
				</g>
				<rect x="1094.943" y="467.724" fill-rule="evenodd" clip-rule="evenodd" width="10.885" height="6.439"/>
				<rect x="1075.419" y="467.724" fill-rule="evenodd" clip-rule="evenodd" width="10.886" height="6.439"/>
				<rect x="1055.959" y="467.724" fill-rule="evenodd" clip-rule="evenodd" width="10.886" height="6.439"/>
			</g>
		</g>
		<g>
			<g>
				<g>
				</g>
				<rect x="1153.59" y="467.724" fill-rule="evenodd" clip-rule="evenodd" width="10.885" height="6.439"/>
				<rect x="1134.065" y="467.724" fill-rule="evenodd" clip-rule="evenodd" width="10.886" height="6.439"/>
				<rect x="1114.605" y="467.724" fill-rule="evenodd" clip-rule="evenodd" width="10.886" height="6.439"/>
			</g>
		</g>
		<g>
			<g>
				<g>
				</g>
				<rect x="1196.837" y="544.145" fill-rule="evenodd" clip-rule="evenodd" width="6.439" height="10.516"/>
				<rect x="1196.837" y="525.283" fill-rule="evenodd" clip-rule="evenodd" width="6.439" height="10.517"/>
				<rect x="1196.837" y="506.484" fill-rule="evenodd" clip-rule="evenodd" width="6.439" height="10.516"/>
			</g>
		</g>
		<g>
			<g>
				<g>
				</g>
				<rect x="1196.837" y="600.799" fill-rule="evenodd" clip-rule="evenodd" width="6.439" height="10.516"/>
				<rect x="1196.837" y="581.938" fill-rule="evenodd" clip-rule="evenodd" width="6.439" height="10.516"/>
				<rect x="1196.837" y="563.139" fill-rule="evenodd" clip-rule="evenodd" width="6.439" height="10.516"/>
			</g>
		</g>
		<g>
			<g>
				<g>
				</g>
				<rect x="1196.837" y="657.452" fill-rule="evenodd" clip-rule="evenodd" width="6.439" height="10.517"/>
				<rect x="1196.837" y="638.592" fill-rule="evenodd" clip-rule="evenodd" width="6.439" height="10.516"/>
				<rect x="1196.837" y="619.793" fill-rule="evenodd" clip-rule="evenodd" width="6.439" height="10.516"/>
			</g>
		</g>
		<g>
			<g>
				<g>
				</g>
				<rect x="1196.837" y="714.106" fill-rule="evenodd" clip-rule="evenodd" width="6.439" height="10.516"/>
				<rect x="1196.837" y="695.246" fill-rule="evenodd" clip-rule="evenodd" width="6.439" height="10.516"/>
				<rect x="1196.837" y="676.446" fill-rule="evenodd" clip-rule="evenodd" width="6.439" height="10.517"/>
			</g>
		</g>
		<g>
			<g>
				<g>
				</g>
				<rect x="1114.494" y="756.837" fill-rule="evenodd" clip-rule="evenodd" width="10.886" height="6.439"/>
				<rect x="1134.019" y="756.837" fill-rule="evenodd" clip-rule="evenodd" width="10.886" height="6.439"/>
				<rect x="1153.479" y="756.837" fill-rule="evenodd" clip-rule="evenodd" width="10.886" height="6.439"/>
			</g>
		</g>
		<g>
			<g>
				<g>
				</g>
				<rect x="1055.848" y="756.837" fill-rule="evenodd" clip-rule="evenodd" width="10.886" height="6.439"/>
				<rect x="1075.372" y="756.837" fill-rule="evenodd" clip-rule="evenodd" width="10.886" height="6.439"/>
				<rect x="1094.832" y="756.837" fill-rule="evenodd" clip-rule="evenodd" width="10.886" height="6.439"/>
			</g>
		</g>
		<g>
			<g>
				<g>
				</g>
				<rect x="997.201" y="756.837" fill-rule="evenodd" clip-rule="evenodd" width="10.886" height="6.439"/>
				<rect x="1016.726" y="756.837" fill-rule="evenodd" clip-rule="evenodd" width="10.886" height="6.439"/>
				<rect x="1036.186" y="756.837" fill-rule="evenodd" clip-rule="evenodd" width="10.886" height="6.439"/>
			</g>
		</g>
		<g>
			<g>
				<g>
				</g>
				<rect x="938.555" y="756.837" fill-rule="evenodd" clip-rule="evenodd" width="10.886" height="6.439"/>
				<rect x="958.079" y="756.837" fill-rule="evenodd" clip-rule="evenodd" width="10.886" height="6.439"/>
				<rect x="977.539" y="756.837" fill-rule="evenodd" clip-rule="evenodd" width="10.886" height="6.439"/>
			</g>
		</g>
		<g>
			<g>
				<g>
				</g>
				<rect x="879.908" y="756.837" fill-rule="evenodd" clip-rule="evenodd" width="10.886" height="6.439"/>
				<rect x="899.433" y="756.837" fill-rule="evenodd" clip-rule="evenodd" width="10.886" height="6.439"/>
				<rect x="918.893" y="756.837" fill-rule="evenodd" clip-rule="evenodd" width="10.886" height="6.439"/>
			</g>
		</g>
		<g>
			<g>
				<g>
				</g>
				<rect x="821.262" y="756.837" fill-rule="evenodd" clip-rule="evenodd" width="10.886" height="6.439"/>
				<rect x="840.786" y="756.837" fill-rule="evenodd" clip-rule="evenodd" width="10.886" height="6.439"/>
				<rect x="860.246" y="756.837" fill-rule="evenodd" clip-rule="evenodd" width="10.886" height="6.439"/>
			</g>
		</g>
		<g>
			<g>
				<g>
				</g>
				<rect x="762.615" y="756.837" fill-rule="evenodd" clip-rule="evenodd" width="10.886" height="6.439"/>
				<rect x="782.14" y="756.837" fill-rule="evenodd" clip-rule="evenodd" width="10.886" height="6.439"/>
				<rect x="801.6" y="756.837" fill-rule="evenodd" clip-rule="evenodd" width="10.886" height="6.439"/>
			</g>
		</g>
		<g>
			<g>
				<g>
				</g>
				<rect x="703.969" y="756.837" fill-rule="evenodd" clip-rule="evenodd" width="10.886" height="6.439"/>
				<rect x="723.493" y="756.837" fill-rule="evenodd" clip-rule="evenodd" width="10.886" height="6.439"/>
				<rect x="742.953" y="756.837" fill-rule="evenodd" clip-rule="evenodd" width="10.886" height="6.439"/>
			</g>
		</g>
		<g>
			<g>
				<g>
				</g>
				<rect x="645.322" y="756.837" fill-rule="evenodd" clip-rule="evenodd" width="10.886" height="6.439"/>
				<rect x="664.847" y="756.837" fill-rule="evenodd" clip-rule="evenodd" width="10.886" height="6.439"/>
				<rect x="684.307" y="756.837" fill-rule="evenodd" clip-rule="evenodd" width="10.886" height="6.439"/>
			</g>
		</g>
		<g>
			<g>
				<g>
				</g>
				<rect x="586.676" y="756.837" fill-rule="evenodd" clip-rule="evenodd" width="10.886" height="6.439"/>
				<rect x="606.2" y="756.837" fill-rule="evenodd" clip-rule="evenodd" width="10.886" height="6.439"/>
				<rect x="625.66" y="756.837" fill-rule="evenodd" clip-rule="evenodd" width="10.886" height="6.439"/>
			</g>
		</g>
		<g>
			<g>
				<g>
				</g>
				<rect x="528.03" y="756.837" fill-rule="evenodd" clip-rule="evenodd" width="10.886" height="6.439"/>
				<rect x="547.554" y="756.837" fill-rule="evenodd" clip-rule="evenodd" width="10.886" height="6.439"/>
				<rect x="567.014" y="756.837" fill-rule="evenodd" clip-rule="evenodd" width="10.886" height="6.439"/>
			</g>
		</g>
		<g>
			<g>
				<g>
				</g>
				<rect x="469.383" y="756.837" fill-rule="evenodd" clip-rule="evenodd" width="10.886" height="6.439"/>
				<rect x="488.907" y="756.837" fill-rule="evenodd" clip-rule="evenodd" width="10.886" height="6.439"/>
				<rect x="508.368" y="756.837" fill-rule="evenodd" clip-rule="evenodd" width="10.886" height="6.439"/>
			</g>
		</g>
		<g>
			<g>
				<g>
				</g>
				<rect x="410.737" y="756.837" fill-rule="evenodd" clip-rule="evenodd" width="10.886" height="6.439"/>
				<rect x="430.261" y="756.837" fill-rule="evenodd" clip-rule="evenodd" width="10.886" height="6.439"/>
				<rect x="449.721" y="756.837" fill-rule="evenodd" clip-rule="evenodd" width="10.886" height="6.439"/>
			</g>
		</g>
		<g>
			<g>
				<g>
				</g>
				<rect x="352.09" y="756.837" fill-rule="evenodd" clip-rule="evenodd" width="10.886" height="6.439"/>
				<rect x="371.614" y="756.837" fill-rule="evenodd" clip-rule="evenodd" width="10.886" height="6.439"/>
				<rect x="391.075" y="756.837" fill-rule="evenodd" clip-rule="evenodd" width="10.886" height="6.439"/>
			</g>
		</g>
		<g>
			<g>
				<g>
				</g>
				<rect x="293.444" y="756.837" fill-rule="evenodd" clip-rule="evenodd" width="10.886" height="6.439"/>
				<rect x="312.968" y="756.837" fill-rule="evenodd" clip-rule="evenodd" width="10.886" height="6.439"/>
				<rect x="332.428" y="756.837" fill-rule="evenodd" clip-rule="evenodd" width="10.886" height="6.439"/>
			</g>
		</g>
		<g>
			<g>
				<g>
				</g>
				<rect x="234.797" y="756.837" fill-rule="evenodd" clip-rule="evenodd" width="10.886" height="6.439"/>
				<rect x="254.321" y="756.837" fill-rule="evenodd" clip-rule="evenodd" width="10.886" height="6.439"/>
				<rect x="273.782" y="756.837" fill-rule="evenodd" clip-rule="evenodd" width="10.886" height="6.439"/>
			</g>
		</g>
		<g>
			<g>
				<g>
				</g>
				<rect x="176.151" y="756.837" fill-rule="evenodd" clip-rule="evenodd" width="10.886" height="6.439"/>
				<rect x="195.675" y="756.837" fill-rule="evenodd" clip-rule="evenodd" width="10.886" height="6.439"/>
				<rect x="215.135" y="756.837" fill-rule="evenodd" clip-rule="evenodd" width="10.886" height="6.439"/>
			</g>
		</g>
		<g>
			<g>
				<g>
				</g>
				<rect x="117.504" y="756.837" fill-rule="evenodd" clip-rule="evenodd" width="10.886" height="6.439"/>
				<rect x="137.028" y="756.837" fill-rule="evenodd" clip-rule="evenodd" width="10.886" height="6.439"/>
				<rect x="156.489" y="756.837" fill-rule="evenodd" clip-rule="evenodd" width="10.886" height="6.439"/>
			</g>
		</g>
		<g>
			<g>
				<g>
				</g>
				<rect x="58.858" y="756.837" fill-rule="evenodd" clip-rule="evenodd" width="10.886" height="6.439"/>
				<rect x="78.382" y="756.837" fill-rule="evenodd" clip-rule="evenodd" width="10.886" height="6.439"/>
				<rect x="97.842" y="756.837" fill-rule="evenodd" clip-rule="evenodd" width="10.886" height="6.439"/>
			</g>
		</g>
		<g>
			<rect x="19.6" y="487.035" fill-rule="evenodd" clip-rule="evenodd" width="6.464" height="10.736"/>
			<polygon fill-rule="evenodd" clip-rule="evenodd" points="19.6,467.718 19.6,478.449 26.064,478.449 26.064,474.156 
				30.332,474.156 30.332,467.718 			"/>
			<rect x="38.917" y="467.718" fill-rule="evenodd" clip-rule="evenodd" width="10.732" height="6.438"/>
		</g>
		<g>
			<rect x="1173.229" y="467.267" fill-rule="evenodd" clip-rule="evenodd" width="10.736" height="6.465"/>
			<polygon fill-rule="evenodd" clip-rule="evenodd" points="1203.282,467.267 1192.551,467.267 1192.551,473.731 1196.844,473.731 
				1196.844,477.999 1203.282,477.999 			"/>
			<rect x="1196.844" y="486.584" fill-rule="evenodd" clip-rule="evenodd" width="6.438" height="10.732"/>
		</g>
		<g>
			<rect x="1197.269" y="733.229" fill-rule="evenodd" clip-rule="evenodd" width="6.465" height="10.736"/>
			<polygon fill-rule="evenodd" clip-rule="evenodd" points="1203.733,763.282 1203.733,752.551 1197.269,752.551 1197.269,756.844 
				1193.001,756.844 1193.001,763.282 			"/>
			<rect x="1173.684" y="756.844" fill-rule="evenodd" clip-rule="evenodd" width="10.732" height="6.438"/>
		</g>
		<g>
			<rect x="39.368" y="757.269" fill-rule="evenodd" clip-rule="evenodd" width="10.736" height="6.465"/>
			<polygon fill-rule="evenodd" clip-rule="evenodd" points="20.05,763.733 30.782,763.733 30.782,757.269 26.49,757.269 
				26.49,753.001 20.05,753.001 			"/>
			<rect x="20.05" y="733.684" fill-rule="evenodd" clip-rule="evenodd" width="6.439" height="10.732"/>
		</g>
	</g>
</g>
<text transform="matrix(1 0 0 1 85.707 89.6094)"><tspan x="0" y="0" fill="#FFFFFF" stroke="#000000" stroke-width="0.25" font-family="'Futura-Medium'" font-size="36">  </tspan><tspan x="0" y="30" fill="#FFFFFF" stroke="#000000" stroke-width="0.25" font-family="'Futura-Medium'" font-size="25">Création sur mesure, pensée pour vous.</tspan></text>
<text transform="matrix(1 0 0 1 56.2534 184.8096)"><tspan x="0" y="0" font-family="'Futura-Medium'" font-size="21">Avec plus de 25 ans d’expérience en construction et rénovation, </tspan><tspan x="0" y="25.2" font-family="'Futura-Medium'" font-size="21">nous transformons vos idées en projets concrets, durables et bien pensés.</tspan><tspan x="0" y="50.4" font-family="'Futura-Medium'" font-size="21">De la cuisine aux objets du quotidien, </tspan><tspan x="0" y="75.6" font-family="'Futura-Medium'" font-size="21">chaque réalisation est façonnée à votre image, avec précision.</tspan><tspan x="0" y="126" fill="#FFFFFF" font-family="'Futura-Medium'" font-size="21">Un projet en tête? Petit ou grand, parlez-nous-en!</tspan><tspan x="0" y="169.2" font-family="'Futura-Medium'" font-size="21"> </tspan><tspan x="6.48" y="169.2" font-family="'Futura-Medium'" font-size="21" letter-spacing="23">	</tspan><tspan x="36" y="169.2" font-family="'Futura-Medium'" font-size="21">819-588-2327</tspan><tspan x="0" y="194.4" font-family="'Futura-Medium'" font-size="21"> </tspan><tspan x="6.48" y="194.4" font-family="'Futura-Medium'" font-size="21" letter-spacing="23">	</tspan><tspan x="36" y="194.4" font-family="'Futura-Medium'" font-size="21">info@carre3131.com</tspan></text>
<g>
	<g>
		<g>
			<path fill="#FFFFFF" stroke="#2C3D52" stroke-width="0.886" d="M111.074,75.664c-2.675,5.365-6.645,9.273-11.824,9.254
				c-11.861-0.043-13.581-17.96-13.542-29.219c0.036-11.343,1.868-29.249,13.731-29.207c5.18,0.021,8.712,3.789,11.079,9.256
				l-3.894,2.882c-1.422-3.584-3.727-6.75-7.202-6.764c-8.32-0.032-8.919,16.344-8.942,23.847
				c-0.026,7.422,0.468,23.799,8.785,23.83c3.547,0.016,6.352-3.644,8.068-7.134L111.074,75.664z"/>
			<path fill="#FFFFFF" stroke="#2C3D52" stroke-width="0.886" d="M126.229,66.682l-3.61,18.665l-4.491-1.554l11.699-56.42
				l5.455,0.021l11.34,56.506l-4.504,1.521l-3.482-18.695L126.229,66.682z M132.599,34.976h-0.135l-5.132,26.591l10.227,0.039
				L132.599,34.976z"/>
			<path fill="#FFFFFF" stroke="#2C3D52" stroke-width="0.886" d="M157.225,27.475l12.272,0.045
				c4.5,0.019,10.143,4.896,10.11,15.133c-0.024,6.995-2.295,13.64-7.89,16.006l9.329,24.429l-4.098,2.456l-10.139-26.477
				l-5.115-0.021l-0.082,25.332l-4.568-0.014L157.225,27.475z M161.707,53.931l6.685,0.027c3.952,0.015,6.416-3.645,6.445-11.32
				c0.02-7.421-2.83-9.992-7.466-10.01l-5.59-0.021L161.707,53.931z"/>
			<path fill="#FFFFFF" stroke="#2C3D52" stroke-width="0.886" d="M191.304,27.6l12.274,0.045
				c4.496,0.018,10.142,4.899,10.105,15.136c-0.021,6.995-2.293,13.639-7.889,16.007l9.327,24.426l-4.098,2.458l-10.14-26.479
				l-5.116-0.019l-0.079,25.333l-4.568-0.019L191.304,27.6z M195.783,54.056l6.684,0.026c3.953,0.014,6.419-3.645,6.442-11.317
				c0.025-7.422-2.824-9.994-7.464-10.01l-5.591-0.021L195.783,54.056z"/>
			<path fill="#FFFFFF" stroke="#2C3D52" stroke-width="0.886" d="M225.042,27.723l22.16,0.085l-0.017,5.116l-17.595-0.066
				l-0.062,18.765l14.528,0.055l-0.017,5.116l-14.528-0.055l-0.07,22.774l17.595,0.064l-0.017,5.116l-22.164-0.081L225.042,27.723z
				 M242.519,18.321L229.75,25.27l-1.756-3.761l12.091-8.57L242.519,18.321z"/>
		</g>
		<path fill="#FFFFFF" stroke="#FFFFFF" stroke-width="0.886" d="M279.362,50.446l18.857-17.269l-26.506-0.069l0.024-5.117
			l35.281,0.094l-0.027,5.117l-17.708,16.072c9.917-0.146,18.378,5.084,18.339,14.55c-0.034,7.587-4.543,13.463-11.623,17.282
			c-5.255,2.889-11.459,4.576-23.663,4.547l0.023-5.375c10.488,0.025,14.981-0.983,18.318-2.683
			c5.639-2.716,10.242-7.644,10.269-13.617c0.032-7.246-7.112-9.574-14.167-9.593c-2.482-0.005-4.957,0.418-7.443,0.666
			L279.362,50.446z"/>
		<path fill="#FFFFFF" stroke="#FFFFFF" stroke-width="0.886" d="M330.932,35.623l-5.421,1.93l-1.976-5.209l13.821-4.723
			L337.12,80.5l6.155,0.037l-0.023,5.117l-19.098-0.094l0.023-5.117l6.553,0.043L330.932,35.623z"/>
		<path fill="#FFFFFF" stroke="#FFFFFF" stroke-width="0.886" d="M368.443,50.446l18.861-17.264l-26.512-0.072l0.027-5.119
			l35.277,0.095l-0.018,5.117l-17.713,16.076c9.918-0.146,18.381,5.08,18.335,14.549c-0.032,7.587-4.539,13.46-11.621,17.279
			c-5.251,2.889-11.459,4.58-23.662,4.546l0.026-5.375c10.488,0.028,14.974-0.979,18.315-2.682
			c5.642-2.712,10.244-7.645,10.267-13.62c0.031-7.246-7.107-9.572-14.163-9.59c-2.483-0.003-4.96,0.414-7.442,0.669L368.443,50.446
			z"/>
		<path fill="#FFFFFF" stroke="#FFFFFF" stroke-width="0.886" d="M419.672,35.618l-5.424,1.931l-1.972-5.205l13.819-4.727
			L425.859,80.5l6.156,0.035l-0.021,5.118l-19.102-0.1l0.019-5.116l6.556,0.042L419.672,35.618z"/>
	</g>
</g>
<circle fill="#FEC020" cx="72.575" cy="345.581" r="4.377"/>
<circle fill="#FEC020" cx="72.575" cy="372.349" r="4.377"/>
<g>
	<polygon points="488.167,643.072 491.198,649.213 497.976,650.199 493.071,654.979 494.229,661.729 488.167,658.541 
		482.105,661.729 483.263,654.979 478.359,650.199 485.137,649.213 	"/>
	<polygon points="1056.574,643.072 1059.604,649.213 1066.382,650.199 1061.479,654.979 1062.636,661.729 1056.574,658.541 
		1050.513,661.729 1051.67,654.979 1046.767,650.199 1053.544,649.213 	"/>
</g>
<text transform="matrix(1 0 0 1 633.3486 529.2256)"><tspan x="0" y="0" font-family="'MarkerFelt-Thin'" font-size="34">Deux jeunes créateurs </tspan><tspan x="-159.287" y="40.8" font-family="'MarkerFelt-Thin'" font-size="34">transforment leurs idées en accessoires uniques</tspan><tspan x="-195.293" y="81.6" font-family="'MarkerFelt-Thin'" font-size="34">grâce à la magie de la découpe et de la gravure laser! </tspan></text>
</a></svg>
